<?xml version="1.0" standalone="no"?>
<!DOCTYPE svg PUBLIC "-//W3C//DTD SVG 20010904//EN"
 "http://www.w3.org/TR/2001/REC-SVG-20010904/DTD/svg10.dtd">
<svg version="1.0" xmlns="http://www.w3.org/2000/svg"
 width="1024.000000pt" height="1024.000000pt" viewBox="0 0 1024.000000 1024.000000"
 preserveAspectRatio="xMidYMid meet">
<metadata>
Created by potrace 1.14, written by Peter Selinger 2001-2017
</metadata>
<g transform="translate(0.000000,1024.000000) scale(0.100000,-0.100000)"
fill="#000000" stroke="none">
<path d="M5740 9475 c-28 -29 -33 -80 -12 -112 12 -19 12 -23 1 -23 -11 0 -11
-2 1 -10 9 -6 11 -10 3 -10 -7 0 -10 -7 -7 -15 4 -8 1 -15 -6 -15 -6 0 -8 -4
-5 -10 3 -5 0 -10 -7 -10 -9 0 -9 -3 2 -10 8 -5 11 -10 6 -10 -5 0 -2 -8 5
-17 10 -11 10 -14 2 -9 -7 4 -13 2 -13 -3 0 -6 4 -11 9 -11 5 0 11 -7 14 -14
4 -11 1 -13 -11 -9 -15 6 -16 5 -2 -12 9 -11 10 -16 3 -11 -7 4 -13 2 -13 -3
0 -6 6 -11 13 -11 9 0 8 -3 -2 -9 -7 -5 -10 -14 -7 -20 4 -6 2 -11 -4 -11 -7
0 -10 -7 -7 -15 4 -8 2 -17 -3 -20 -10 -6 -8 -40 3 -51 3 -4 2 -15 -4 -25 -7
-13 -6 -19 2 -19 6 0 9 -7 5 -15 -3 -8 0 -15 7 -15 8 0 9 -2 1 -8 -6 -4 -10
-15 -8 -24 1 -10 -2 -18 -8 -18 -6 0 -5 -6 2 -15 9 -10 9 -15 1 -15 -6 0 -11
-9 -11 -20 0 -11 -4 -20 -9 -20 -5 0 -7 -9 -4 -20 3 -11 0 -20 -6 -20 -5 0 -8
-7 -4 -16 3 -9 0 -20 -8 -25 -12 -8 -12 -11 1 -19 11 -7 11 -10 2 -10 -7 0
-11 -4 -7 -9 3 -6 -3 -15 -14 -21 -17 -8 -19 -8 -15 4 7 18 -12 30 -22 15 -5
-8 -3 -9 7 -4 12 8 12 6 0 -8 -17 -22 -19 -21 -17 3 0 12 8 25 16 30 11 7 11
10 2 10 -7 0 -10 5 -7 10 4 6 11 7 17 4 7 -4 8 -2 4 5 -6 9 -11 9 -22 0 -7 -6
-11 -15 -8 -20 6 -10 -33 -6 -41 4 -3 4 -2 5 2 2 11 -8 32 16 26 31 -6 16 -29
19 -38 4 -4 -6 1 -7 12 -4 17 5 17 5 0 -9 -16 -13 -17 -19 -6 -39 12 -22 11
-22 -6 -8 -17 14 -18 13 -13 -12 4 -21 2 -25 -11 -20 -14 5 -14 4 -1 -13 9
-11 10 -16 3 -11 -7 4 -13 3 -13 -3 0 -5 6 -12 13 -15 9 -3 7 -9 -6 -19 -14
-11 -15 -16 -5 -20 11 -4 11 -6 0 -6 -7 -1 -11 -5 -8 -10 4 -5 2 -21 -4 -36
-7 -19 -7 -24 1 -19 8 5 8 1 0 -14 -7 -14 -8 -29 -2 -45 6 -14 7 -27 5 -30 -3
-3 2 -20 11 -37 12 -23 13 -30 3 -25 -10 6 -10 5 -1 -5 10 -11 9 -16 -5 -27
-11 -10 -12 -12 -2 -7 13 6 13 5 1 -7 -10 -11 -15 -11 -18 -1 -5 13 -63 17
-63 4 0 -8 -7 -10 -50 -14 -11 -1 -20 -7 -20 -12 0 -6 -4 -6 -11 1 -8 8 -19 3
-39 -17 -25 -24 -34 -27 -89 -25 -63 2 -91 16 -91 44 0 13 -8 16 -40 13 -26
-3 -40 0 -40 8 0 6 -4 8 -10 5 -5 -3 -10 -3 -10 2 0 9 -99 12 -101 3 0 -3 -2
-16 -3 -28 -4 -30 -20 -40 -59 -36 -47 6 -56 11 -67 36 -8 20 -9 19 -9 -12 -1
-42 -16 -60 -48 -60 -18 0 -23 -6 -23 -27 0 -20 -3 -24 -9 -14 -6 9 -10 10
-12 2 -3 -7 -14 -13 -27 -14 -12 0 -22 -5 -22 -9 0 -5 -8 -5 -17 0 -10 5 -43
8 -73 8 -52 -1 -90 15 -90 37 0 5 -7 15 -15 24 -8 8 -13 19 -10 24 4 5 1 9 -5
9 -14 0 -69 61 -70 78 0 6 -5 12 -11 12 -7 0 -9 10 -7 25 3 13 1 22 -3 19 -4
-2 -13 4 -19 15 -11 21 1 37 19 26 5 -3 13 0 17 6 4 8 3 9 -4 5 -7 -4 -12 -2
-12 4 0 7 -7 9 -16 6 -9 -3 -12 -2 -9 5 4 5 2 15 -3 22 -5 7 -8 20 -7 29 2 10
-1 20 -5 23 -18 11 2 36 24 30 20 -5 20 -4 -1 6 -13 7 -23 16 -23 21 0 5 -4 7
-9 4 -5 -3 -11 3 -14 14 -3 13 -10 18 -21 14 -9 -4 -16 -1 -16 6 0 7 -8 10
-20 7 -11 -3 -20 -1 -20 5 0 5 -4 6 -10 3 -5 -3 -10 -1 -10 4 0 6 -6 11 -13
11 -26 0 -67 26 -79 50 -7 14 -16 27 -19 30 -4 3 -9 14 -11 25 -1 11 -8 26
-15 33 -7 7 -10 19 -7 27 4 8 1 15 -5 15 -5 0 -10 19 -10 43 0 23 -2 51 -5 62
-2 11 -5 23 -5 26 -2 12 -56 64 -69 67 -6 1 -12 -3 -12 -9 0 -5 -4 -8 -9 -5
-5 4 -8 0 -7 -6 3 -18 25 -55 26 -43 0 6 9 11 19 11 14 0 17 -4 10 -12 -7 -9
-4 -14 10 -19 13 -4 18 -11 14 -22 -4 -9 -2 -14 3 -10 6 3 9 -12 8 -39 -1 -24
1 -44 5 -44 4 0 7 -8 8 -17 3 -38 10 -73 16 -80 4 -3 7 -19 7 -34 0 -27 -29
-48 -55 -40 -5 1 -27 4 -48 7 -20 2 -45 8 -55 13 -11 6 -23 7 -28 3 -5 -4 -8
-6 -8 -4 3 6 -47 52 -56 52 -6 0 -10 6 -10 14 0 18 -22 25 -74 24 -22 0 -42 6
-47 14 -6 9 -9 7 -9 -9 0 -17 4 -21 17 -16 11 4 14 3 9 -5 -5 -8 -1 -10 10 -5
12 4 15 3 10 -6 -4 -6 -4 -11 1 -10 18 3 34 -1 29 -9 -2 -4 7 -9 22 -10 15 -1
29 -7 30 -12 2 -6 8 -10 13 -10 17 0 49 -38 36 -44 -7 -3 -2 -3 11 0 12 3 22
1 22 -4 0 -6 7 -13 16 -16 10 -4 13 -2 8 7 -6 9 -4 9 7 1 8 -6 22 -10 32 -9 9
2 15 -1 11 -6 -3 -5 1 -9 9 -9 14 0 49 -33 45 -41 -2 -2 -1 -3 1 -1 2 1 13 -6
24 -15 15 -13 18 -14 12 -3 -6 11 -3 10 12 -2 11 -10 26 -18 34 -18 20 0 76
-67 96 -116 10 -24 21 -44 26 -44 4 0 7 -5 7 -12 0 -6 8 -21 18 -32 28 -32 72
-113 65 -120 -3 -3 -2 -6 4 -6 16 0 22 -51 9 -74 -24 -44 -37 -49 -110 -51
-84 -2 -176 -31 -176 -54 0 -14 -1 -14 -10 -1 -7 12 -10 12 -10 1 0 -8 -6 -11
-16 -7 -12 5 -15 2 -10 -10 5 -12 3 -14 -6 -7 -7 5 -38 10 -68 11 -43 2 -68
-4 -117 -27 -35 -17 -63 -35 -63 -41 0 -6 -4 -8 -10 -5 -5 3 -10 0 -10 -8 0
-7 -22 -23 -49 -36 -28 -12 -66 -33 -87 -47 -20 -14 -48 -27 -63 -29 -14 -3
-39 -7 -56 -9 -49 -8 -73 -14 -93 -25 -11 -6 -22 -7 -26 -4 -3 3 -6 0 -6 -7 0
-7 -3 -10 -6 -7 -4 4 -15 -3 -25 -15 -11 -11 -19 -18 -19 -14 0 4 -13 -6 -30
-22 -16 -17 -30 -34 -30 -39 0 -12 -61 -59 -88 -67 -12 -4 -22 -12 -22 -17 0
-6 -5 -7 -12 -3 -7 4 -8 3 -4 -5 4 -6 0 -14 -9 -17 -9 -4 -20 -17 -25 -29 -8
-20 -16 -23 -71 -23 -38 0 -65 -4 -67 -11 -2 -6 -8 -9 -13 -5 -5 3 -9 1 -9 -3
0 -5 -16 -17 -35 -27 -19 -11 -35 -25 -35 -33 0 -8 -4 -12 -9 -9 -4 3 -13 -5
-19 -19 -6 -13 -36 -40 -67 -60 -31 -19 -53 -40 -50 -45 4 -6 1 -9 -7 -8 -7 2
-12 -3 -11 -9 2 -7 -2 -13 -7 -13 -6 0 -10 -9 -10 -20 0 -11 -5 -20 -11 -20
-5 0 -8 -4 -5 -9 7 -11 -42 -61 -60 -61 -8 0 -14 -5 -14 -11 0 -5 -4 -8 -9 -4
-9 5 -74 -66 -72 -79 0 -3 -6 -21 -15 -41 -8 -19 -11 -35 -7 -35 5 0 -9 -11
-30 -24 -55 -34 -113 -29 -156 12 -19 17 -37 29 -42 26 -5 -3 -9 2 -9 10 0 9
-3 16 -8 16 -4 0 -18 23 -31 52 -13 28 -31 60 -40 69 -22 24 -69 41 -76 28 -4
-5 -10 -7 -15 -4 -4 2 -25 -7 -46 -21 -66 -45 -184 -35 -239 20 -14 14 -25 30
-25 36 0 5 -4 10 -9 10 -7 0 -15 15 -25 50 -14 51 -44 105 -71 129 -29 25 -38
28 -69 21 -37 -8 -62 3 -68 30 -4 18 -44 60 -58 60 -5 0 -10 5 -10 11 0 6 -6
9 -14 6 -7 -3 -19 0 -25 6 -8 8 -11 8 -11 0 0 -6 -9 -9 -19 -6 -14 3 -34 -10
-69 -45 -30 -30 -62 -52 -79 -55 -43 -7 -76 -23 -94 -43 -24 -28 -41 -92 -29
-106 1 -2 3 -11 5 -22 4 -20 44 -66 58 -66 5 0 21 -8 35 -19 32 -21 118 -52
126 -44 3 3 13 0 23 -8 15 -12 16 -12 9 1 -4 8 3 2 16 -15 52 -67 63 -75 103
-79 21 -1 50 3 64 10 13 7 29 10 35 7 6 -3 8 -3 4 1 -8 9 69 90 93 99 10 3 33
-3 53 -14 20 -10 36 -16 36 -13 0 4 6 2 12 -4 7 -5 32 -15 56 -21 25 -7 48
-22 58 -36 14 -22 24 -25 77 -25 85 0 107 -3 107 -12 0 -4 7 -8 15 -8 21 0 85
-42 85 -57 0 -6 4 -13 9 -15 6 -1 15 -32 21 -68 14 -82 14 -83 23 -97 4 -6 1
-14 -5 -16 -10 -4 -10 -6 0 -6 10 -1 7 -12 -9 -38 -52 -85 -93 -123 -131 -123
-42 0 -105 -65 -99 -102 0 -5 -4 -8 -9 -8 -6 0 -10 -5 -10 -11 0 -11 -39 -48
-52 -49 -26 -1 -115 -131 -103 -150 3 -4 2 -10 -2 -12 -5 -1 -16 -19 -26 -38
-10 -19 -27 -51 -38 -71 -11 -20 -23 -67 -28 -103 -6 -55 -13 -72 -34 -90 -15
-13 -27 -28 -27 -35 0 -6 -4 -11 -9 -11 -5 0 -21 -26 -37 -57 -21 -45 -28 -73
-29 -123 -1 -64 -25 -130 -49 -130 -5 0 -7 -3 -3 -6 3 -4 0 -19 -9 -35 -8 -16
-12 -29 -8 -29 4 0 1 -7 -6 -15 -7 -8 -9 -15 -4 -15 5 0 10 -19 12 -43 4 -73
7 -87 15 -87 4 0 7 -12 7 -26 0 -14 -4 -23 -8 -20 -15 9 -18 -72 -10 -222 2
-49 -1 -66 -13 -75 -9 -7 -17 -16 -18 -22 -4 -16 -11 -20 -11 -6 0 7 -5 9 -12
5 -6 -4 -105 -8 -220 -9 -163 -1 -211 1 -219 12 -6 7 -20 13 -30 13 -10 0 -20
4 -23 8 -4 8 -53 7 -126 0 -14 -2 -31 -9 -38 -15 -13 -13 -32 -16 -84 -15 -16
0 -28 -4 -28 -9 0 -6 -7 -6 -17 -1 -10 5 -52 9 -94 9 -75 0 -76 0 -76 -24 0
-14 2 -21 6 -16 7 12 81 11 100 -1 10 -6 12 -5 7 2 -5 8 5 9 31 6 21 -3 43 -6
50 -7 6 0 14 -10 17 -22 7 -29 43 -68 50 -56 3 5 2 11 -3 13 -5 1 -11 10 -13
18 -2 8 -9 20 -17 26 -11 9 -12 12 -1 19 9 5 11 4 6 -3 -4 -7 -2 -12 3 -12 6
0 11 4 11 10 0 10 32 1 41 -12 3 -4 30 -9 60 -10 34 -2 58 -8 66 -18 11 -13
12 -12 13 5 0 16 2 17 10 5 5 -8 24 -16 42 -18 18 -1 40 -3 48 -4 8 -1 21 -8
28 -17 12 -14 13 -14 8 1 -3 12 -1 15 10 11 9 -3 13 -12 9 -21 -5 -13 -3 -13
11 -1 10 8 20 13 23 12 3 -1 8 1 11 4 3 4 -1 3 -9 -2 -10 -5 -12 -4 -7 4 4 6
12 8 18 5 6 -4 16 -1 22 7 18 23 79 57 99 54 9 -2 17 1 17 6 0 6 4 8 9 5 27
-17 115 -15 164 4 56 21 81 26 57 10 -8 -5 -10 -10 -4 -10 6 0 11 -7 12 -15 1
-8 3 -22 4 -30 1 -8 5 -15 10 -15 5 0 7 -4 3 -9 -3 -5 -1 -12 5 -16 5 -3 17
-21 26 -40 12 -25 13 -38 5 -52 -6 -10 -11 -13 -11 -8 0 6 -9 -3 -19 -19 -11
-17 -18 -34 -15 -38 3 -5 2 -7 -3 -6 -4 2 -18 -6 -30 -17 -12 -11 -28 -25 -35
-31 -24 -21 -68 -76 -68 -86 0 -5 -4 -7 -9 -4 -5 3 -14 -1 -21 -9 -7 -8 -19
-15 -27 -15 -8 0 -24 -5 -36 -12 -12 -7 -29 -13 -37 -14 -89 -12 -110 -16
-110 -23 0 -10 -18 -12 -102 -13 -38 0 -68 -5 -68 -10 0 -5 -4 -7 -10 -3 -15
9 -29 -58 -14 -72 16 -17 115 -13 121 4 3 7 9 10 14 7 5 -3 9 -1 9 4 0 15 80
43 101 37 11 -4 17 -11 13 -16 -11 -18 19 -4 49 23 17 15 34 25 38 23 4 -3 10
2 13 11 4 9 9 14 13 11 3 -4 15 -1 27 5 11 7 24 11 29 10 4 -1 7 2 7 7 0 5 11
12 25 15 14 4 23 11 20 16 -3 6 -1 10 5 10 6 0 15 11 21 24 10 20 52 43 68 36
2 -1 7 3 11 10 4 6 13 13 21 15 35 8 59 18 59 24 0 4 9 7 20 7 11 0 20 -6 20
-13 0 -7 4 -13 8 -13 5 0 9 -6 10 -12 3 -46 19 -81 33 -73 9 6 14 -9 9 -30 -1
-5 1 -7 5 -3 10 10 45 -24 38 -36 -3 -6 -3 -8 2 -4 4 4 21 -6 37 -22 15 -16
28 -27 28 -24 0 3 7 -1 15 -10 8 -8 15 -19 15 -25 0 -6 8 -7 17 -4 12 5 15 2
10 -10 -6 -15 -4 -16 14 -6 12 6 19 7 16 1 -7 -10 41 -37 61 -33 8 1 19 -3 27
-9 12 -10 46 -21 73 -22 6 -1 12 -5 12 -10 0 -4 9 -8 20 -8 11 0 20 -4 20 -8
0 -9 3 -10 70 -15 76 -7 109 -17 115 -38 4 -11 11 -17 16 -14 5 4 12 -1 15 -9
3 -9 12 -16 19 -16 8 0 17 -9 20 -20 3 -11 13 -20 21 -20 8 0 12 -4 9 -10 -3
-6 1 -7 9 -4 9 3 16 1 16 -5 0 -6 7 -8 15 -5 17 7 20 -6 5 -24 -7 -9 -7 -9 2
-2 7 5 19 10 27 10 11 0 9 -6 -7 -22 -11 -13 -21 -27 -21 -33 -1 -5 -5 -10
-10 -10 -5 0 -13 -4 -18 -9 -4 -5 -3 -7 3 -3 6 3 11 0 11 -8 0 -13 -3 -12 -18
1 -10 9 -16 21 -12 27 3 6 1 7 -6 3 -9 -6 -9 -11 -1 -21 8 -9 6 -14 -6 -19
-24 -9 -31 -7 -14 4 12 8 11 9 -7 7 -27 -4 -55 -26 -47 -38 3 -5 2 -9 -3 -8
-19 3 -27 -2 -15 -10 11 -7 11 -9 -2 -14 -9 -4 -15 -3 -13 1 2 7 -6 12 -24 12
-5 0 -7 -6 -3 -12 5 -8 0 -7 -11 2 -17 14 -18 13 -12 -4 6 -16 5 -17 -8 -6
-13 11 -16 11 -13 -1 2 -8 -3 -13 -10 -11 -8 1 -11 -2 -7 -8 3 -6 11 -8 16 -5
5 4 9 2 9 -3 0 -5 -11 -10 -25 -11 -51 -3 -56 -5 -51 -17 3 -8 0 -16 -6 -20
-7 -5 -8 -2 -4 7 4 8 1 5 -8 -5 -8 -10 -13 -23 -10 -27 2 -4 -5 -6 -17 -4 -15
3 -19 0 -15 -10 8 -22 -2 -18 -14 4 -9 17 -7 19 10 16 22 -4 36 10 19 21 -6 3
-15 1 -19 -6 -4 -6 -10 -11 -14 -11 -25 4 -36 -1 -36 -16 0 -15 -2 -16 -10 -3
-6 10 -10 11 -10 3 0 -7 -11 -13 -24 -13 -14 0 -27 -4 -31 -10 -3 -5 -12 -7
-20 -4 -8 4 -18 -1 -21 -10 -3 -9 -11 -13 -17 -9 -6 3 -7 1 -3 -5 4 -7 2 -12
-5 -12 -10 0 -10 -3 -2 -11 12 -12 63 15 63 33 0 6 5 6 14 -1 10 -9 15 -8 19
3 3 8 16 13 31 12 14 -2 23 1 20 5 -3 5 4 9 16 9 12 0 19 -4 15 -9 -3 -5 -1
-12 4 -15 5 -4 12 -2 16 3 3 5 14 8 25 6 11 -2 19 1 17 8 -1 7 4 11 12 9 7 -1
19 2 25 8 7 5 16 7 20 3 4 -4 4 0 1 9 -5 13 -2 16 14 13 19 -4 25 5 22 30 -1
6 6 1 14 -9 13 -18 20 -15 16 6 0 5 5 7 12 5 6 -1 11 4 9 11 -1 8 2 11 8 7 5
-3 10 -1 10 5 0 6 4 9 9 6 5 -3 15 2 22 11 12 14 12 16 0 8 -10 -5 -12 -4 -7
4 6 9 11 9 24 -1 14 -11 15 -10 9 6 -7 17 -6 17 10 5 11 -9 14 -10 9 -1 -4 6
-2 12 3 12 6 0 11 -5 11 -12 0 -6 8 -4 19 6 18 17 19 17 24 -1 4 -16 5 -16 6
0 0 9 6 17 12 17 5 0 7 5 3 12 -4 7 -3 8 5 4 9 -6 9 -12 -1 -24 -7 -10 -8 -14
-4 -10 5 4 16 2 25 -5 14 -11 14 -10 2 6 -15 20 -2 23 18 5 11 -10 13 -10 7 0
-4 6 -2 12 3 12 6 0 11 9 11 20 0 13 -5 18 -15 14 -8 -4 -15 -2 -15 4 0 6 8 9
18 7 9 -2 17 -4 17 -6 0 -6 63 -4 78 3 13 7 19 4 26 -14 5 -13 6 -27 3 -32 -3
-5 0 -6 6 -3 5 4 8 15 5 25 -3 14 3 18 36 18 41 1 55 -11 26 -22 -8 -4 -12
-10 -9 -15 3 -5 0 -9 -5 -9 -6 0 -11 -7 -11 -16 0 -8 -4 -12 -10 -9 -5 3 -10
1 -10 -6 0 -7 -3 -10 -6 -6 -3 3 -14 -3 -25 -14 -11 -11 -25 -17 -31 -13 -7 4
-8 3 -4 -4 7 -11 -6 -17 -28 -13 -5 1 -6 -5 -2 -14 4 -13 2 -14 -14 -5 -15 8
-18 7 -14 -3 3 -8 -1 -14 -8 -14 -24 0 -93 -52 -112 -84 -13 -22 -19 -53 -20
-101 -1 -37 -5 -68 -9 -68 -5 0 -6 -4 -3 -8 3 -5 -6 -21 -19 -36 -14 -16 -22
-34 -18 -40 3 -6 3 -8 -2 -4 -9 9 -65 -22 -65 -35 0 -5 -7 -7 -15 -3 -8 3 -15
1 -15 -4 0 -8 -100 -8 -120 0 -3 1 -8 2 -12 1 -62 -9 -101 -9 -124 0 -53 22
-95 27 -134 17 -55 -13 -112 -94 -108 -155 1 -24 6 -43 10 -43 5 0 6 -4 3 -10
-3 -5 -1 -10 5 -10 6 0 8 -4 5 -10 -3 -5 -1 -10 5 -10 6 0 9 -4 6 -8 -3 -5 6
-19 19 -30 14 -12 25 -26 25 -32 0 -5 9 -10 20 -10 11 0 20 -4 20 -8 0 -4 9
-8 20 -9 11 -1 20 3 20 9 0 6 6 6 15 -2 11 -9 15 -9 15 -1 0 7 4 9 10 6 5 -3
10 -1 10 6 0 8 5 7 17 -2 11 -10 14 -10 9 -1 -4 6 -4 12 1 13 43 4 98 42 87
60 -3 5 -1 9 5 9 6 0 20 10 32 23 12 12 18 16 14 8 -6 -11 -4 -13 8 -8 10 3
17 2 17 -3 0 -5 9 -12 21 -15 11 -4 18 -9 15 -12 -6 -6 19 -33 31 -33 4 -1 21
-11 37 -24 27 -22 27 -24 10 -35 -11 -6 -14 -11 -6 -11 11 0 11 -2 0 -13 -7
-8 -22 -26 -33 -42 -11 -16 -31 -40 -45 -54 -13 -14 -24 -28 -23 -31 1 -3 -3
-4 -7 -3 -5 2 -12 -6 -15 -17 -4 -11 -11 -18 -16 -15 -5 4 -9 -1 -9 -11 0 -15
2 -15 28 1 36 23 90 82 97 106 4 10 13 19 21 19 8 0 12 5 9 10 -3 6 5 14 20
20 14 5 28 16 31 24 3 8 12 12 20 9 10 -4 12 0 7 13 -4 12 -3 15 5 10 8 -5 12
0 12 13 0 12 3 20 8 19 23 -7 168 124 157 142 -3 6 -2 10 4 10 5 0 13 9 16 20
3 11 10 20 16 20 14 0 48 33 43 42 -3 4 0 8 6 8 6 0 8 5 5 10 -3 6 -2 10 3 10
6 0 9 14 8 31 -1 16 2 33 7 36 6 4 7 1 2 -7 -5 -9 -4 -11 4 -6 8 5 9 12 2 20
-6 7 -6 17 -1 26 5 8 6 18 4 22 -3 4 0 8 7 8 8 0 8 4 1 13 -8 10 -6 13 8 14
10 1 18 -4 16 -10 -1 -7 -1 -9 1 -4 3 4 9 7 14 7 6 0 8 -4 5 -9 -7 -11 21 -8
31 4 4 4 3 5 -4 1 -12 -6 -26 9 -29 32 -2 9 4 8 18 -5 21 -18 21 -18 9 4 -8
16 -8 24 1 29 6 4 8 3 5 -3 -4 -6 0 -16 8 -23 13 -11 15 -10 9 6 -5 18 -4 18
12 -1 l17 -20 -7 20 c-4 11 -8 25 -9 30 -1 6 -6 13 -12 17 -6 5 -5 8 3 8 8 0
10 5 6 12 -4 8 -3 10 2 5 5 -5 9 -18 9 -29 0 -12 6 -22 13 -24 7 -1 8 0 2 3
-7 3 -8 9 -1 17 8 9 5 19 -11 35 l-21 23 22 -7 c12 -4 21 -2 21 4 0 11 -13 15
-40 12 -13 -2 -13 -1 0 8 8 5 17 8 21 5 4 -2 12 3 19 11 7 8 9 15 4 15 -5 0
-2 5 6 11 13 9 13 10 0 6 -8 -2 -14 -9 -13 -14 1 -5 -8 -9 -20 -10 -12 0 -16
1 -9 4 6 3 9 10 6 15 -4 6 -2 8 4 4 6 -3 13 -2 17 4 3 5 1 10 -6 10 -7 0 -1 9
12 21 13 11 24 26 25 32 0 7 2 15 4 20 3 7 7 22 9 34 0 3 11 -2 22 -13 22 -19
22 -19 10 4 -10 19 -9 22 6 23 10 1 22 1 26 0 5 -1 6 3 3 8 -4 5 -2 12 4 16 5
3 10 0 10 -7 1 -8 5 -7 14 5 11 14 15 15 19 5 4 -8 6 -7 6 5 1 9 4 17 9 17 4
0 14 13 23 28 14 25 21 28 67 27 36 0 59 -6 81 -22 16 -13 40 -23 51 -23 12 0
19 -4 15 -9 -3 -5 -1 -12 5 -16 5 -3 10 -18 10 -33 0 -17 8 -32 20 -40 12 -7
18 -17 15 -22 -11 -18 6 -50 26 -50 11 0 19 -7 19 -16 0 -8 5 -12 10 -9 6 3
10 -1 10 -10 0 -10 5 -13 12 -9 8 5 9 2 5 -10 -4 -9 -3 -15 2 -11 6 3 14 -3
20 -12 5 -10 11 -16 13 -15 6 7 57 -21 53 -29 -3 -4 5 -5 17 -1 14 3 19 2 14
-6 -4 -7 -1 -12 8 -12 8 0 17 -9 21 -19 3 -11 12 -18 20 -15 7 3 16 0 21 -7 5
-8 3 -10 -7 -4 -8 5 -10 4 -6 0 14 -16 36 -14 30 2 -5 12 -2 13 13 6 10 -6 26
-8 34 -6 13 4 13 3 0 -6 -14 -10 -8 -15 13 -12 4 1 2 -8 -5 -19 -7 -11 -16
-20 -21 -20 -4 0 -5 -6 -1 -12 5 -8 0 -7 -11 2 -12 10 -16 11 -11 2 8 -13 -35
-62 -55 -62 -6 0 -8 -4 -5 -8 2 -4 -11 -18 -30 -31 -18 -13 -31 -27 -28 -32 2
-5 -3 -21 -13 -36 -10 -15 -17 -30 -16 -33 1 -3 -7 -13 -18 -23 -10 -10 -19
-15 -19 -11 0 3 -6 1 -13 -5 -8 -6 -16 -8 -19 -5 -3 3 -34 7 -69 9 -35 2 -68
4 -73 4 -5 1 -3 8 4 16 7 8 17 12 24 8 6 -4 6 0 -2 9 -7 9 -12 20 -11 24 3 20
-2 35 -10 30 -4 -3 -7 5 -6 19 2 18 -1 22 -13 18 -11 -5 -14 -2 -9 9 4 12 1
14 -14 11 -25 -7 -35 -23 -15 -23 9 0 16 -5 16 -11 0 -6 -7 -8 -16 -5 -13 5
-14 4 -6 -7 7 -8 9 -17 5 -20 -3 -4 -1 -7 6 -7 6 0 11 -6 10 -12 -3 -26 1 -38
15 -38 8 0 13 -8 11 -17 -1 -10 3 -25 9 -33 6 -8 0 -6 -13 5 -14 11 -21 15
-18 8 4 -6 3 -14 -3 -18 -6 -4 -8 -11 -5 -16 4 -5 1 -9 -5 -9 -6 0 -14 -8 -17
-17 -7 -21 -43 -69 -43 -59 0 4 -16 -9 -36 -29 -31 -31 -34 -38 -23 -53 11
-14 11 -15 -1 -5 -17 15 -44 17 -35 3 3 -6 -1 -13 -9 -16 -16 -6 -17 -29 -2
-53 7 -10 5 -13 -5 -9 -10 4 -15 -1 -15 -13 0 -11 4 -19 8 -19 5 0 4 -9 -2
-20 -6 -11 -8 -25 -5 -30 3 -5 -4 -14 -15 -20 -14 -7 -19 -17 -16 -27 5 -13 4
-14 -8 -4 -10 8 -16 9 -21 1 -3 -5 0 -10 7 -11 7 0 1 -5 -14 -10 -15 -6 -30
-19 -33 -30 -4 -10 -11 -19 -16 -19 -6 0 -8 -4 -5 -9 3 -5 -1 -12 -10 -15 -8
-3 -12 -10 -9 -16 3 -5 -1 -10 -10 -10 -10 0 -13 -5 -9 -12 4 -6 3 -8 -3 -5
-6 4 -21 -2 -33 -13 -13 -11 -20 -20 -16 -20 4 0 0 -7 -8 -16 -9 -8 -14 -20
-11 -25 4 -5 1 -9 -5 -9 -6 0 -8 -4 -5 -10 3 -5 1 -10 -5 -10 -7 0 -10 -6 -7
-14 3 -8 -1 -17 -8 -20 -9 -3 -12 -12 -8 -22 4 -11 2 -15 -4 -11 -11 7 -28
-20 -24 -37 1 -5 -5 -6 -13 -3 -11 4 -13 1 -9 -10 4 -11 2 -14 -5 -9 -7 4 -12
1 -12 -9 0 -9 -4 -13 -10 -10 -5 3 -10 1 -10 -6 0 -6 -8 -18 -17 -26 -10 -8
-12 -12 -5 -8 6 3 12 1 12 -4 0 -6 5 -11 10 -11 6 0 10 7 10 15 0 7 8 19 18
24 9 6 13 11 8 11 -5 0 4 11 20 25 16 14 26 25 22 25 -4 0 4 12 17 26 14 15
25 33 25 40 0 8 5 14 11 14 5 0 7 4 4 10 -3 5 10 17 29 27 20 9 36 22 36 29 0
6 7 15 16 18 8 3 12 10 9 16 -3 5 -1 10 5 10 7 0 9 7 6 17 -4 10 -4 14 0 10
10 -10 35 43 27 57 -3 6 -3 8 2 4 4 -4 16 1 25 12 14 16 28 19 103 16 47 -2
84 0 82 5 -3 4 -1 10 5 14 5 3 10 1 10 -6 0 -9 3 -9 14 0 7 6 22 8 32 4 16 -6
15 -3 -4 17 -27 29 -29 44 -3 28 11 -7 18 -15 16 -18 -2 -4 2 -7 10 -7 8 0 17
7 19 14 3 8 11 11 18 7 10 -5 10 -3 0 7 -16 17 -84 20 -94 5 -5 -7 -8 -6 -8 3
0 11 -4 10 -13 -4 -14 -19 -43 -12 -31 7 5 7 2 8 -5 3 -10 -6 -11 -3 -2 13 9
17 8 19 -9 15 -12 -3 -20 0 -20 6 0 7 5 9 13 5 9 -6 9 -5 0 8 -7 8 -10 18 -6
22 4 4 -1 4 -12 0 -11 -4 -17 -4 -13 1 4 4 3 14 -3 22 -6 7 -8 13 -3 13 13 -1
49 -29 49 -39 0 -4 8 -15 17 -25 10 -10 18 -13 18 -7 0 5 -8 15 -17 20 -10 6
-15 11 -10 11 4 0 0 11 -9 25 -8 13 -13 30 -9 37 4 7 0 6 -7 -3 -12 -15 -16
-15 -33 -2 -19 15 -19 15 4 8 18 -6 22 -4 16 6 -5 8 -5 11 0 7 4 -4 17 -3 28
3 15 8 18 8 12 -1 -5 -8 -3 -11 6 -8 8 3 13 11 11 18 -2 10 1 10 14 -1 16 -13
16 -12 4 11 -12 23 -12 24 4 11 13 -11 16 -11 14 -1 -2 7 3 15 11 18 9 3 11 0
6 -8 -5 -9 -4 -11 4 -6 6 4 9 11 6 16 -3 4 3 14 13 21 16 13 16 13 2 -5 -14
-18 -13 -19 2 -13 10 3 20 1 24 -5 5 -7 2 -8 -6 -3 -10 6 -12 3 -8 -13 4 -14
1 -25 -9 -31 -13 -7 -13 -9 1 -14 9 -4 16 -11 16 -17 0 -6 -3 -9 -8 -6 -10 6
-37 -15 -45 -36 -9 -26 -26 -22 -21 4 4 21 4 21 -5 3 -19 -44 16 -48 41 -5 11
20 22 28 32 24 11 -4 16 0 16 10 0 9 5 16 11 16 5 0 7 -5 3 -12 -4 -6 -3 -8 4
-4 6 3 9 18 6 31 -4 21 -1 25 21 25 15 0 25 6 25 15 0 9 6 12 17 8 12 -5 15
-2 10 10 -3 9 -2 17 3 17 21 0 25 2 33 16 4 8 15 14 22 14 8 0 15 4 15 10 0 5
7 7 15 3 10 -3 15 -1 13 7 -2 7 4 15 12 17 12 3 12 2 2 -5 -10 -7 -10 -11 2
-21 14 -12 32 -67 27 -85 -1 -5 4 -4 11 2 11 9 13 3 11 -29 -1 -21 1 -39 5
-39 4 0 8 -10 9 -21 1 -12 11 -41 22 -65 12 -24 21 -48 21 -54 0 -5 5 -10 12
-10 6 0 8 -3 5 -7 -4 -3 -1 -13 5 -21 7 -8 13 -46 14 -85 1 -66 -1 -72 -30
-101 -17 -17 -34 -30 -38 -29 -4 2 -10 -6 -13 -17 -4 -11 -10 -18 -15 -15 -4
3 -13 -2 -20 -10 -7 -8 -18 -15 -25 -15 -7 0 -16 -7 -19 -16 -3 -8 -10 -12
-16 -9 -5 3 -10 1 -10 -5 0 -7 -6 -10 -12 -8 -11 4 -77 -64 -79 -80 0 -4 -2
-17 -4 -28 -5 -23 27 -68 39 -57 4 4 4 0 1 -9 -4 -9 -1 -19 6 -24 8 -5 10 -3
4 7 -7 12 -5 12 6 1 12 -11 12 -14 -1 -23 -13 -9 -12 -10 3 -5 23 7 22 -11 -3
-24 -11 -6 -19 -14 -19 -18 3 -19 -2 -33 -10 -28 -5 4 -8 -1 -7 -9 1 -9 6 -15
12 -15 10 0 26 50 16 50 -4 0 4 7 16 16 15 10 21 23 18 39 -3 17 -1 22 9 19 7
-3 16 -1 19 5 4 6 13 8 20 5 8 -3 18 1 22 8 11 16 15 42 6 33 -4 -4 -7 -12 -7
-18 0 -5 -6 -12 -14 -15 -9 -3 -12 0 -9 9 4 8 9 22 13 32 5 11 3 17 -6 17 -7
0 -10 -3 -6 -6 3 -4 -1 -20 -9 -36 -11 -22 -18 -27 -28 -19 -7 6 -17 7 -21 3
-5 -4 -5 -2 -1 5 4 7 13 10 21 6 10 -3 15 1 15 12 0 10 -5 13 -12 9 -7 -4 -8
-3 -4 5 4 6 12 9 17 6 13 -9 11 9 -4 25 -9 11 -8 11 7 0 18 -14 19 -13 13 4
-7 17 -6 17 9 5 16 -13 16 -12 6 7 -9 16 -8 21 3 21 8 0 12 -4 9 -8 -2 -4 0
-10 5 -14 6 -3 8 3 6 15 -2 11 1 20 7 20 7 0 6 5 -2 14 -10 13 -7 14 17 10 27
-5 27 -5 8 10 -19 15 -19 16 -1 9 15 -5 17 -3 11 7 -6 10 -4 12 10 6 16 -6 16
-4 4 11 -13 15 -12 16 7 11 18 -5 22 -2 19 18 -2 19 0 22 11 13 11 -9 14 -8
14 4 0 9 13 26 30 39 27 20 47 52 42 71 -1 4 2 7 7 7 5 0 12 13 16 30 4 16 10
30 14 30 4 0 13 11 19 25 9 19 9 25 -1 26 -6 0 -3 4 8 9 17 7 17 9 3 9 -10 1
-18 6 -18 12 0 5 5 7 10 4 6 -3 10 1 10 9 0 9 -6 16 -12 16 -9 0 -8 4 2 10 13
8 12 10 -3 10 -10 0 -20 7 -23 15 -4 8 -10 13 -14 10 -5 -3 -20 7 -34 22 -16
17 -21 30 -15 34 7 4 4 9 -6 13 -15 5 -15 9 -4 23 10 12 10 14 2 9 -13 -7 -18
6 -6 17 3 4 7 23 9 42 2 32 0 34 -14 23 -9 -7 -7 -1 5 15 13 16 19 35 16 44
-5 12 -3 14 8 8 11 -6 11 -5 2 5 -12 13 -7 43 6 36 4 -3 6 18 5 45 -2 36 0 47
9 42 7 -4 6 1 -2 11 -9 11 -11 20 -5 24 5 4 9 17 8 30 -1 12 2 22 7 22 4 0 6
9 4 20 -2 11 0 18 6 15 5 -4 9 2 9 13 0 10 9 27 19 36 11 10 17 25 14 34 -4 9
-2 13 4 9 6 -4 14 0 17 9 5 14 9 14 24 3 15 -13 16 -12 3 4 -11 14 -16 15 -30
5 -14 -12 -14 -11 -2 5 7 9 20 17 28 17 9 0 13 6 10 14 -4 11 -1 13 10 9 10
-4 14 -2 10 4 -3 5 0 10 8 10 8 0 12 -4 9 -9 -3 -4 2 -8 11 -8 9 0 14 4 11 8
-3 5 12 9 33 8 22 0 37 -4 35 -8 -2 -4 -13 -5 -24 -3 -10 2 -25 -4 -32 -13
-11 -15 -11 -15 3 -4 14 10 18 10 23 -4 3 -9 3 -21 -1 -26 -3 -7 -1 -8 6 -4 6
4 9 16 6 27 -4 11 -3 19 2 18 22 -4 44 2 39 10 -9 13 22 7 36 -7 9 -9 9 -12 0
-12 -7 0 -12 5 -12 11 0 5 -5 7 -11 3 -8 -5 -8 -9 1 -14 9 -5 9 -9 1 -14 -6
-4 -11 -2 -11 3 0 6 -5 11 -11 11 -8 0 -8 -5 1 -15 7 -8 16 -13 20 -10 5 3 10
2 13 -2 2 -5 2 -2 1 5 -4 16 13 16 20 0 3 -7 4 -4 3 7 -1 14 5 20 25 21 16 2
29 -3 32 -12 3 -9 12 -12 18 -9 7 4 4 -1 -6 -9 -15 -12 -22 -13 -27 -4 -4 7
-6 15 -4 18 2 4 -2 7 -9 7 -7 0 -13 -6 -13 -13 0 -7 5 -10 10 -7 6 4 8 0 4
-10 -6 -16 8 -17 47 -1 15 6 17 4 10 -7 -19 -30 -1 -57 25 -36 11 9 15 9 18
-1 3 -6 10 -9 16 -5 7 4 8 0 4 -11 -4 -9 -3 -15 1 -12 5 3 21 -6 38 -19 16
-14 34 -28 39 -33 6 -5 19 -8 28 -6 15 2 16 0 6 -12 -12 -15 -23 -19 -15 -6 3
5 -1 9 -9 9 -8 0 -15 -4 -15 -9 0 -4 5 -8 11 -8 5 0 7 -5 3 -12 -4 -7 7 -2 24
11 18 12 32 28 32 34 0 8 3 8 8 2 4 -5 16 -12 26 -13 18 -3 19 -2 5 15 -13 16
-13 17 4 4 9 -7 17 -10 17 -7 0 4 8 2 18 -3 11 -6 24 -6 36 1 15 9 17 7 12
-10 -4 -13 -1 -22 9 -26 9 -3 13 -11 9 -17 -4 -8 -3 -9 5 -5 6 4 8 13 4 19 -8
14 -13 60 -5 52 3 -3 12 1 20 8 10 7 13 8 9 1 -8 -14 18 -38 32 -30 5 4 14 -2
20 -11 6 -10 11 -13 11 -8 0 17 -21 34 -36 28 -8 -3 -14 0 -14 7 0 6 4 9 9 6
5 -4 12 0 14 6 4 10 6 9 6 -1 1 -11 6 -10 21 4 19 17 20 18 14 1 -5 -13 -2
-17 12 -14 15 2 18 -2 16 -21 -2 -23 -2 -23 15 -4 10 10 14 13 9 6 -5 -8 -6
-16 -3 -20 4 -3 2 -15 -4 -26 -6 -10 -7 -17 -2 -14 4 3 17 -1 28 -9 13 -10 15
-14 4 -14 -9 -1 -7 -5 6 -12 33 -20 46 -19 35 3 -6 10 -15 19 -21 19 -6 0 -8
4 -5 9 3 5 -2 15 -12 22 -16 13 -16 13 -2 -5 13 -17 13 -19 0 -14 -16 5 -23
45 -8 54 4 3 7 0 6 -8 -2 -7 3 -12 9 -11 7 2 12 0 12 -5 -3 -20 2 -25 12 -12
8 12 9 10 4 -9 -5 -16 -4 -21 4 -17 6 4 11 4 10 -1 -4 -24 2 -35 19 -29 16 6
16 5 0 -6 -9 -7 -25 -18 -35 -25 -17 -12 -17 -12 2 -6 15 5 17 3 9 -6 -7 -7
-9 -21 -7 -32 5 -19 6 -19 19 -2 13 16 14 12 13 -37 0 -30 2 -65 4 -76 12 -48
50 -118 85 -152 20 -20 30 -32 22 -27 -12 7 -13 6 -3 -6 13 -16 13 -75 1 -95
-4 -5 -3 -16 2 -24 5 -9 5 -19 -2 -27 -7 -8 -7 -13 0 -13 10 0 9 -107 -3 -150
-3 -14 -7 -31 -9 -38 -1 -7 -8 -18 -14 -24 -7 -7 -12 -18 -12 -24 0 -7 -9 -15
-19 -19 -11 -3 -22 -13 -25 -21 -3 -8 -11 -12 -16 -9 -6 4 -9 3 -8 -2 2 -4 -1
-9 -7 -11 -5 -2 -15 -13 -22 -25 -7 -12 -12 -18 -13 -14 0 5 -12 -1 -26 -12
-15 -11 -30 -18 -35 -15 -5 3 -9 0 -9 -5 0 -6 -7 -11 -16 -11 -8 0 -12 -5 -9
-10 4 -6 3 -10 -2 -9 -26 4 -46 -4 -71 -31 -16 -17 -35 -30 -41 -30 -7 0 -9
-4 -6 -10 6 -9 -8 -14 -27 -11 -5 0 -8 -5 -8 -13 0 -7 -9 -16 -21 -19 -13 -4
-18 -10 -13 -18 4 -7 3 -10 -3 -6 -6 4 -18 -2 -28 -13 -10 -11 -21 -17 -26
-15 -4 3 -14 -2 -22 -10 -12 -11 -17 -12 -20 -2 -3 7 -6 5 -6 -5 -1 -13 -8
-16 -28 -12 -21 3 -24 2 -13 -6 8 -5 12 -10 8 -11 -5 -1 -11 -2 -15 -3 -5 -1
-13 -5 -20 -9 -6 -4 -14 -1 -16 5 -4 8 -6 7 -6 -4 -1 -9 -15 -21 -32 -27 -17
-6 -28 -15 -24 -20 3 -6 -3 -8 -15 -6 -11 2 -23 -1 -26 -7 -5 -7 -2 -8 7 -3
10 6 10 4 -1 -9 -9 -9 -27 -17 -41 -18 -21 -2 -25 -6 -21 -23 5 -18 4 -19 -13
-5 -17 14 -18 13 -12 -3 4 -11 2 -17 -8 -17 -8 0 -15 6 -15 13 0 8 -3 7 -9 -3
-6 -8 -7 -18 -4 -23 3 -5 -5 -4 -17 3 -20 11 -22 10 -17 -3 5 -12 0 -14 -21
-11 -26 5 -27 5 -7 -11 11 -9 15 -14 8 -11 -6 4 -14 2 -18 -4 -4 -6 -11 -8
-16 -5 -5 4 -9 1 -9 -5 0 -6 -4 -8 -10 -5 -6 3 -7 -1 -4 -10 4 -9 3 -15 -2
-14 -5 1 -20 1 -34 0 -20 -1 -22 -3 -10 -11 12 -8 9 -10 -12 -10 -16 0 -28 -5
-28 -11 0 -6 -6 -9 -14 -6 -8 3 -17 -1 -20 -9 -3 -8 -11 -13 -18 -12 -8 2 -12
-5 -10 -17 2 -11 -1 -16 -5 -10 -16 20 -36 17 -30 -5 4 -17 3 -19 -9 -9 -11 9
-15 8 -20 -5 -3 -9 -10 -14 -14 -11 -5 3 -21 0 -37 -6 -15 -6 -30 -11 -33 -11
-18 -1 -39 -21 -34 -31 5 -9 4 -9 -6 0 -17 16 -51 -2 -44 -22 4 -8 9 -13 13
-10 12 7 52 -25 45 -37 -4 -6 -10 -5 -16 3 -8 12 -9 12 -6 0 2 -8 12 -15 21
-17 9 -1 15 2 11 7 -3 5 0 9 6 9 7 0 10 -5 8 -12 -4 -11 -26 -19 -64 -22 -15
-1 -20 -6 -17 -21 l4 -20 -16 20 c-12 14 -16 16 -15 5 5 -36 -1 -44 -15 -20
-17 30 -19 21 -3 -15 13 -29 35 -28 29 1 -3 18 -2 18 17 1 18 -17 20 -17 33 0
9 11 10 14 2 9 -9 -5 -11 -2 -7 9 6 14 8 14 20 -2 13 -17 13 -17 14 2 0 11 4
16 8 10 4 -5 16 -12 27 -13 11 -2 22 -8 23 -13 2 -5 10 -9 18 -9 8 0 14 -10
14 -21 0 -19 2 -20 17 -8 9 8 14 9 10 3 -7 -11 28 -46 37 -37 3 4 6 1 6 -5 0
-6 8 -9 18 -7 10 2 19 -2 19 -9 0 -7 -6 -13 -13 -13 -7 0 -10 5 -7 10 3 6 1 7
-5 4 -5 -4 -8 -17 -4 -29 4 -15 2 -19 -7 -13 -8 4 -18 -1 -27 -14 -8 -12 -20
-21 -26 -21 -6 0 -21 -11 -33 -24 -18 -19 -25 -22 -35 -13 -10 9 -11 9 -6 -1
4 -7 1 -15 -8 -18 -9 -3 -13 -11 -10 -16 4 -6 -2 -8 -15 -3 -16 5 -20 3 -15
-9 4 -11 0 -14 -15 -11 -13 2 -18 -1 -15 -10 3 -7 0 -16 -7 -21 -8 -5 -10 -3
-4 6 5 8 3 11 -6 8 -8 -3 -13 -10 -12 -16 2 -6 -4 -9 -13 -5 -8 3 -14 2 -12
-3 2 -5 -1 -10 -5 -11 -5 -1 -14 -9 -21 -19 -7 -9 -18 -14 -24 -10 -6 4 -9 -3
-8 -18 3 -20 -1 -23 -20 -21 -17 1 -21 -2 -16 -14 5 -14 3 -14 -11 -3 -14 12
-16 11 -12 -7 2 -11 -2 -24 -9 -28 -8 -5 -15 -17 -18 -28 -4 -22 -47 -29 -60
-10 -5 6 -8 5 -8 -3 0 -7 -5 -10 -12 -6 -7 4 -8 3 -4 -4 6 -11 -6 -16 -26 -13
-5 0 -8 -3 -8 -9 0 -5 5 -10 11 -10 5 0 8 -4 5 -9 -3 -5 2 -15 12 -22 15 -13
16 -12 3 4 -8 10 -9 17 -3 17 6 0 14 -5 18 -11 4 -8 9 -7 15 2 4 8 14 14 21
14 7 0 12 9 10 20 -2 18 0 17 18 -5 17 -20 19 -21 11 -4 -10 21 -6 34 10 34 5
0 6 -8 2 -17 -5 -15 -3 -14 10 2 9 11 17 26 17 34 0 8 8 4 20 -10 10 -13 19
-20 20 -16 0 5 -7 15 -15 23 -26 26 -16 39 10 14 14 -13 23 -31 20 -39 -2 -9
0 -23 5 -31 5 -8 10 -11 10 -5 0 5 7 -1 16 -13 12 -18 13 -26 4 -37 -9 -11 -9
-15 -1 -15 6 0 11 5 11 11 0 5 5 7 10 4 8 -5 8 -11 1 -19 -8 -9 -2 -12 22 -12
18 1 38 -6 45 -14 10 -13 11 -13 6 3 -5 13 -2 16 10 11 9 -3 14 -9 12 -13 -3
-4 5 -7 17 -8 12 0 27 -1 32 -3 6 -1 18 -2 28 -1 15 1 16 4 6 24 -9 17 -9 20
1 10 7 -6 13 -21 14 -32 1 -23 19 -25 23 -3 4 31 13 23 9 -8 -4 -31 -3 -33 10
-15 11 15 14 16 14 3 0 -9 7 -18 15 -22 13 -5 14 -2 4 16 l-12 21 28 -21 c31
-25 54 -30 36 -8 -11 13 -4 15 27 7 1 -1 -2 -10 -8 -20 -9 -18 -8 -19 20 -11
18 5 32 5 36 -1 3 -5 10 -6 16 -3 7 4 8 -2 3 -17 -7 -21 -6 -22 9 -10 13 11
16 11 16 1 0 -8 3 -10 7 -7 10 10 34 -14 26 -27 -4 -6 1 -4 12 4 10 8 27 14
38 12 13 -3 17 0 12 9 -5 8 -4 10 4 5 8 -5 9 -12 2 -20 -8 -9 -3 -12 19 -10
17 1 30 -3 30 -8 0 -6 6 -5 15 2 8 7 15 8 15 3 0 -13 42 -11 53 2 5 6 7 4 4
-5 -2 -8 -11 -14 -18 -12 -8 2 -11 0 -6 -4 4 -4 16 -9 27 -11 14 -2 18 2 13
15 -5 14 -3 13 10 -3 14 -16 18 -17 26 -6 7 11 9 11 14 0 4 -12 7 -11 16 1 7
10 11 11 11 3 0 -7 7 -13 16 -13 8 0 13 4 9 9 -3 5 9 8 27 7 18 -2 37 2 41 8
6 7 7 6 4 -4 -2 -8 -9 -14 -14 -13 -5 1 -10 -5 -10 -13 0 -10 4 -11 11 -4 12
12 29 14 22 2 -2 -4 6 -8 19 -8 15 0 21 4 18 14 -5 11 -7 11 -14 0 -6 -9 -8
-6 -6 10 2 26 1 26 21 6 9 -9 22 -17 29 -18 6 -1 18 -5 24 -9 15 -10 56 10 48
24 -4 5 -8 9 -11 9 -3 0 -3 -4 0 -9 3 -5 -1 -12 -10 -15 -24 -9 -28 -7 -15 8
9 11 9 15 -1 20 -7 3 -1 3 14 1 14 -2 29 -1 32 3 11 10 36 11 30 0 -3 -5 2 -8
11 -6 10 2 20 -3 22 -9 3 -7 0 -13 -7 -13 -6 0 -8 5 -4 12 4 7 3 8 -5 4 -9 -6
-9 -11 1 -23 8 -10 14 -11 16 -4 3 9 8 8 20 -1 14 -11 14 -9 -1 12 -24 35 -21
40 14 28 25 -8 33 -8 40 3 5 8 9 9 9 3 0 -5 11 -10 25 -10 14 0 25 4 25 10 0
5 2 7 5 4 3 -3 2 -13 -1 -22 -5 -14 -9 -15 -16 -4 -7 10 -8 9 -4 -4 4 -12 0
-18 -11 -18 -9 0 -14 -3 -10 -6 11 -11 44 6 54 28 8 19 10 20 16 4 5 -11 3
-15 -5 -10 -7 4 -8 3 -4 -4 4 -6 13 -9 21 -6 8 4 13 10 10 14 -3 5 -1 12 5 15
6 4 9 3 8 -2 -2 -4 2 -8 7 -8 6 0 9 4 7 8 -1 4 6 4 15 -1 10 -5 24 -7 31 -5 6
3 12 0 12 -7 0 -6 -4 -8 -10 -5 -6 4 -7 -1 -3 -11 5 -14 8 -12 20 10 15 28 26
36 17 11 -6 -15 5 -20 35 -16 8 2 10 -2 5 -10 -4 -8 -3 -10 4 -5 6 4 8 14 5
23 -6 15 -5 16 9 3 9 -8 13 -19 10 -24 -3 -5 0 -6 6 -2 9 5 9 13 1 28 -9 16
-8 19 3 12 7 -5 23 -9 34 -9 12 0 29 -7 38 -14 14 -12 16 -11 9 5 -6 17 -5 17
10 5 13 -10 17 -10 17 -1 0 9 4 9 17 -1 15 -12 16 -12 8 1 -8 13 -7 13 8 1 14
-11 17 -11 17 0 0 11 2 11 10 -1 5 -8 10 -11 10 -6 0 4 12 1 26 -9 15 -9 24
-13 20 -7 -3 5 8 12 25 14 16 3 33 0 36 -5 4 -6 1 -7 -8 -2 -8 5 -11 4 -6 0 4
-5 16 -9 27 -10 18 -2 19 0 5 15 -13 15 -13 17 0 17 8 0 13 -3 10 -5 -7 -8 37
-42 46 -36 5 3 9 7 9 10 0 3 -4 2 -10 -1 -6 -3 -10 -1 -10 4 0 14 34 9 54 -8
14 -12 16 -11 10 4 -5 13 -3 16 7 13 8 -3 13 -11 11 -18 -2 -10 0 -11 11 -2 8
7 18 8 22 4 5 -4 5 -1 1 6 -4 7 -1 12 8 12 9 0 16 -5 16 -10 0 -10 41 -7 59 4
5 4 12 2 16 -4 3 -5 11 -10 16 -10 6 0 8 4 5 8 -3 5 1 9 9 9 8 0 15 -3 15 -7
0 -3 9 -6 20 -7 11 -1 18 2 16 6 -3 4 1 8 9 8 8 0 15 -5 15 -11 0 -6 5 -5 12
2 16 16 31 15 22 -1 -5 -8 -2 -8 9 2 9 7 17 10 17 6 0 -4 6 -2 14 4 11 9 16 9
22 0 5 -8 3 -9 -6 -4 -9 6 -11 4 -5 -5 6 -10 13 -7 27 11 11 13 18 17 15 9 -3
-10 3 -15 19 -15 13 0 24 3 24 7 0 4 7 4 17 1 12 -5 14 -3 8 8 -7 11 -5 11 10
-1 15 -12 17 -12 10 -1 -6 11 -3 13 14 8 17 -4 21 -2 17 9 -3 8 -1 14 4 14 6
0 11 -10 11 -22 1 -18 2 -19 6 -5 2 9 9 15 14 11 5 -3 6 -11 2 -17 -4 -7 1 -5
11 3 10 8 25 15 34 16 8 2 19 9 23 16 7 11 9 11 9 0 0 -7 5 -10 12 -6 7 4 8 3
4 -4 -9 -16 46 -16 61 -1 8 8 13 7 18 -2 5 -8 4 -10 -3 -5 -18 11 -14 0 5 -15
11 -10 14 -10 9 -1 -4 6 -3 12 3 12 5 0 11 -8 13 -18 3 -14 5 -13 10 6 4 15 3
20 -5 15 -7 -3 -9 -2 -4 2 10 12 47 14 47 3 0 -12 38 -10 45 2 5 8 12 7 23 -2
12 -9 11 -6 -2 10 -20 23 -10 31 14 10 12 -11 12 -10 2 3 -6 9 -8 20 -4 24 4
5 -5 1 -20 -8 -16 -10 -28 -15 -28 -11 0 4 -7 1 -15 -6 -10 -9 -15 -9 -15 -1
0 6 5 11 11 11 5 0 7 4 4 10 -3 5 -1 10 4 10 6 0 11 -5 11 -11 0 -5 5 -7 10
-4 6 4 8 11 5 16 -3 5 1 6 9 3 9 -3 16 -1 16 5 0 15 13 14 36 -5 18 -15 18
-15 -3 -4 -18 8 -21 8 -17 -3 2 -7 16 -13 29 -13 15 0 21 4 16 11 -4 5 -8 24
-8 40 0 17 1 22 4 12 6 -22 19 -22 32 1 7 12 10 13 11 3 0 -11 4 -10 20 4 19
17 19 17 15 -4 -5 -25 14 -39 26 -20 15 24 10 34 -7 13 -15 -18 -15 -17 -1 6
13 22 36 28 29 7 -1 -5 2 -6 8 -2 5 3 10 0 10 -7 0 -10 3 -9 11 2 9 12 10 11
6 -8 -3 -12 -1 -20 4 -16 5 3 9 12 9 20 0 8 4 13 8 10 5 -3 9 1 9 9 0 8 -5 11
-11 7 -19 -11 -34 -11 -39 2 -3 8 6 12 29 11 19 -1 37 1 39 6 8 11 65 -13 58
-25 -4 -6 -2 -7 3 -3 5 5 9 13 9 18 0 16 19 10 21 -7 3 -19 14 -32 14 -16 0 6
7 9 16 5 10 -3 22 0 28 8 13 16 56 20 50 5 -2 -6 6 -17 18 -25 18 -10 20 -10
11 0 -7 7 -13 22 -13 33 1 19 2 19 16 -4 12 -21 14 -22 12 -5 -2 16 2 20 25
18 15 -1 25 2 22 7 -3 6 1 7 9 4 9 -3 16 -10 16 -16 0 -5 -5 -6 -11 -2 -6 3
-3 -5 6 -20 10 -14 22 -26 27 -26 5 0 2 8 -8 17 -11 11 -13 18 -5 21 6 2 8 9
5 14 -4 7 -2 8 4 4 6 -4 9 -14 6 -24 -5 -14 -4 -15 5 -2 6 8 8 24 5 35 -4 14
-3 16 4 7 5 -8 11 -14 14 -15 10 -4 38 26 32 34 -3 5 2 6 11 2 12 -4 13 -8 5
-13 -9 -6 -9 -9 0 -15 6 -4 9 -14 6 -22 -3 -8 -1 -11 4 -8 6 3 10 15 10 26 0
10 5 19 11 19 6 0 9 -7 6 -14 -4 -10 -1 -13 9 -9 7 3 14 -1 14 -8 0 -7 3 -9 6
-6 4 4 1 14 -7 23 -13 16 -12 16 9 5 12 -7 20 -17 16 -23 -4 -7 -3 -8 5 -4 6
4 9 11 6 16 -3 4 4 6 15 3 15 -4 20 0 21 13 0 16 2 15 9 -3 5 -13 12 -23 15
-23 4 0 3 5 0 10 -3 6 -1 10 6 10 8 0 8 5 -2 18 -11 14 -10 13 9 -2 12 -11 22
-16 22 -11 0 4 8 1 17 -6 11 -9 8 -1 -7 21 -15 21 -18 30 -7 21 9 -7 24 -11
32 -7 8 3 23 -4 34 -15 12 -13 21 -17 26 -10 3 6 10 9 15 6 5 -3 17 6 28 20
11 13 22 22 25 19 3 -3 4 6 3 20 -2 15 0 29 4 31 10 6 22 -24 14 -36 -3 -5 -3
-9 0 -9 3 0 10 9 16 21 9 15 8 24 -2 36 -11 14 -10 15 12 10 14 -4 19 -4 12
-1 -6 3 -10 10 -7 14 3 5 -3 8 -14 7 -11 0 -17 -5 -15 -9 3 -4 0 -8 -5 -8 -6
0 -11 6 -11 14 0 8 -5 18 -12 22 -7 5 -9 2 -6 -7 3 -8 9 -22 13 -32 5 -12 3
-17 -5 -15 -7 2 -15 -3 -17 -9 -3 -7 0 -13 6 -13 6 0 11 -5 11 -10 0 -6 -4 -9
-9 -8 -5 2 -9 1 -8 -2 2 -14 -25 -50 -34 -44 -6 3 -3 11 7 18 11 8 13 15 7 19
-9 6 -24 -14 -27 -35 -2 -17 -13 -14 -30 10 -11 15 -13 21 -6 14 15 -13 31
-16 28 -4 -2 4 10 20 26 35 22 22 25 31 16 42 -7 8 -8 20 -4 27 5 7 7 21 6 31
-2 9 2 17 8 17 6 0 9 4 5 10 -3 5 -13 7 -23 4 -14 -5 -14 -4 -2 4 10 8 18 8
27 0 7 -6 13 -6 13 -2 0 5 -9 15 -21 22 -15 10 -19 10 -14 1 5 -8 4 -10 -3 -5
-7 4 -12 14 -12 22 0 10 5 12 13 8 9 -6 9 -4 1 7 -19 25 -23 46 -8 46 8 0 14
-8 14 -18 0 -10 4 -20 9 -23 16 -10 -1 38 -20 57 -17 16 -16 53 1 42 5 -3 11
-1 14 4 9 13 -19 7 -38 -8 -9 -8 -19 -11 -23 -7 -3 3 -2 6 4 6 6 0 14 7 17 16
5 14 4 15 -9 4 -12 -10 -15 -9 -15 5 0 10 -3 15 -7 12 -3 -4 -13 -1 -21 6 -13
10 -14 9 -7 -3 7 -12 6 -13 -7 -3 -8 7 -18 11 -21 8 -4 -3 -5 -2 -2 2 3 3 -7
14 -21 24 -17 11 -28 28 -30 46 -2 23 -1 25 7 10 6 -9 7 -22 3 -28 -4 -7 -1
-10 7 -7 8 3 13 14 11 24 -2 18 -2 18 9 1 9 -15 13 -16 26 -5 20 16 16 16 38
-2 15 -12 17 -12 10 -1 -6 11 -1 13 31 9 21 -4 48 -9 59 -13 l20 -8 -20 17
-20 16 20 -6 c11 -4 26 -14 33 -22 8 -11 12 -12 12 -3 0 7 5 9 10 6 6 -3 13 1
16 9 3 9 10 13 15 10 5 -3 6 -11 2 -17 -4 -7 1 -5 12 3 20 17 25 17 34 1 4 -6
19 -12 33 -13 15 -1 25 -5 22 -9 -7 -11 28 -22 77 -24 29 -1 46 3 46 10 0 7
-11 11 -23 9 -16 -1 -21 2 -17 12 3 9 16 13 39 10 19 -3 37 0 40 6 4 6 2 8 -4
4 -6 -3 -13 -2 -16 2 -3 5 -17 7 -31 4 -15 -2 -25 0 -25 7 0 7 -4 10 -8 7 -4
-2 -14 0 -22 5 -12 7 -11 8 5 6 11 -1 26 -7 34 -12 10 -5 16 -4 19 3 3 9 10 9
25 1 20 -9 20 -9 5 4 -10 8 -14 18 -10 23 4 4 0 4 -8 -2 -8 -5 -39 -9 -67 -8
-29 1 -55 -1 -58 -6 -5 -8 -68 10 -81 23 -4 4 -15 7 -25 7 -10 0 -23 8 -28 17
-8 14 -10 15 -11 3 0 -12 -2 -12 -9 -2 -4 8 -11 13 -15 13 -20 -3 -26 1 -27
17 0 10 -3 12 -6 5 -2 -7 -11 -13 -19 -13 -9 0 -12 4 -9 10 5 8 -21 15 -46 12
-4 -1 -5 7 -2 17 3 10 0 22 -6 25 -6 4 -9 1 -8 -6 2 -7 2 -10 0 -5 -3 4 -10 4
-16 0 -9 -5 -9 -3 0 8 6 8 11 18 11 24 0 5 6 11 13 14 7 2 9 -1 5 -8 -5 -7 -1
-9 9 -4 13 5 14 7 3 14 -12 8 -4 13 15 10 4 0 7 4 7 11 0 6 10 3 23 -8 12 -10
17 -12 10 -5 -15 17 10 46 32 38 7 -3 16 -3 18 1 2 4 2 2 1 -5 -2 -7 2 -15 8
-19 6 -4 8 -3 5 3 -4 6 5 19 19 28 15 9 24 12 20 7 -3 -6 -2 -13 4 -17 5 -3
10 0 10 7 0 8 5 6 11 -5 6 -9 14 -15 19 -12 5 3 11 1 15 -4 3 -6 12 -8 20 -5
9 4 19 -3 25 -18 7 -14 21 -24 33 -25 l22 -1 -22 10 c-13 6 -23 15 -23 20 0
11 14 10 26 -2 8 -8 15 -5 24 7 12 15 12 16 0 6 -11 -10 -20 -8 -46 12 -18 14
-40 25 -49 25 -9 0 -14 4 -11 9 9 13 -31 44 -49 38 -10 -4 -15 0 -16 11 0 10
-3 12 -6 5 -3 -9 -10 -10 -22 -3 -10 5 -21 7 -24 4 -2 -3 -28 -5 -56 -6 -28 0
-49 -4 -46 -9 3 -4 -8 -3 -25 2 -16 6 -27 15 -24 20 3 6 13 5 22 -3 15 -12 16
-11 3 4 -7 10 -17 15 -22 12 -5 -3 -18 4 -27 16 -11 13 -29 22 -45 22 -15 0
-27 4 -27 9 0 5 -3 8 -7 8 -19 -3 -30 2 -31 14 -1 6 -3 24 -6 38 -2 14 1 32 6
40 8 11 9 10 4 -4 -3 -9 -1 -17 4 -17 5 0 8 13 7 29 -1 21 -5 27 -14 20 -7 -7
-14 -6 -19 2 -4 7 -3 9 4 5 6 -4 10 1 9 13 -1 16 -4 18 -16 8 -12 -10 -14 -9
-8 7 5 14 3 17 -8 13 -8 -4 -17 -1 -21 5 -4 7 -3 8 4 4 7 -4 12 -3 12 2 0 6
-7 13 -16 16 -8 3 -12 10 -9 16 6 10 -9 15 -30 10 -5 -1 -7 1 -3 5 4 4 -2 16
-12 28 -11 11 -17 23 -15 27 3 4 -3 7 -13 6 -10 0 -16 5 -14 14 2 8 -5 20 -14
27 -11 8 -13 13 -5 13 7 0 20 -8 29 -18 10 -10 13 -12 8 -5 -4 7 -6 20 -2 28
3 8 4 19 3 23 -2 7 -7 8 -35 11 -8 1 -10 6 -6 14 5 7 1 7 -10 -2 -10 -8 -15
-23 -13 -33 3 -10 1 -16 -4 -12 -5 3 -9 12 -9 20 0 11 -4 13 -17 6 -12 -7 -24
-5 -42 7 -14 9 -22 11 -18 4 4 -6 3 -14 -2 -17 -5 -4 -8 5 -7 18 2 15 -1 23
-9 20 -18 -7 -10 58 13 100 3 5 -1 6 -8 1 -8 -5 -11 -3 -8 6 3 8 11 13 17 11
7 -1 10 2 7 7 -3 5 1 12 10 15 8 3 12 10 9 16 -3 5 3 10 14 10 11 0 22 4 25 9
3 4 -6 6 -21 3 -20 -4 -24 -2 -18 9 8 12 6 12 -8 0 -12 -10 -14 -17 -7 -26 8
-9 6 -14 -5 -19 -19 -7 -21 24 -2 43 10 11 9 13 -6 8 -15 -6 -16 -4 -7 13 6
11 13 20 16 20 3 0 3 -4 -1 -9 -3 -5 -1 -12 4 -15 5 -4 12 -2 16 4 4 6 11 7
17 4 8 -5 9 -1 4 11 -5 15 -4 16 9 5 8 -7 12 -17 8 -23 -3 -6 -1 -7 5 -3 6 3
9 15 7 26 -2 12 2 20 9 20 9 0 13 -11 11 -30 -1 -17 0 -28 3 -25 3 3 7 22 9
42 4 46 10 52 23 22 l10 -24 -4 25 c-4 19 -1 26 12 27 9 1 29 3 45 6 16 2 27
0 27 -7 0 -6 4 -5 9 2 4 8 11 13 15 13 19 -3 27 0 22 7 -2 4 4 9 15 9 11 1 37
20 58 42 22 23 43 41 48 42 4 0 22 2 38 2 17 1 36 6 43 10 6 5 17 5 22 2 6 -3
10 -1 10 5 0 6 5 8 10 5 6 -3 22 3 36 14 15 11 30 18 35 15 5 -3 9 0 9 5 0 6
5 11 11 11 7 0 23 12 36 26 13 14 27 24 30 21 3 -4 20 5 39 19 18 14 38 23 44
19 5 -3 13 1 16 9 3 9 15 16 25 16 10 0 19 5 19 11 0 5 4 8 9 5 5 -3 12 2 15
11 6 14 9 15 15 4 7 -10 10 -8 16 8 4 14 12 20 21 17 8 -3 14 1 14 9 0 8 4 15
9 15 5 0 23 14 40 32 17 17 34 29 37 25 4 -4 13 1 21 11 8 9 11 11 8 4 -6 -11
-3 -11 14 0 12 7 21 16 21 21 0 4 4 6 9 3 5 -3 12 1 15 10 3 8 10 13 15 10 5
-3 12 1 15 10 4 9 9 14 13 10 3 -3 24 13 47 37 22 23 44 41 49 39 5 -1 11 7
14 18 3 11 12 20 19 20 8 0 13 3 13 8 -3 19 2 33 11 27 6 -3 10 1 10 9 0 9 5
16 11 16 5 0 7 5 3 12 -5 7 -2 9 9 5 11 -4 14 -2 10 8 -3 8 2 18 11 21 9 3 14
10 11 14 -3 5 4 12 16 15 17 6 19 9 8 16 -10 6 -11 9 -1 9 6 0 12 7 12 16 0 8
3 13 8 11 9 -5 42 30 35 37 -4 3 -1 6 6 6 7 0 9 5 6 10 -3 6 -1 10 4 10 6 0
11 6 11 14 0 8 6 16 14 19 8 3 13 16 12 31 -2 14 2 24 8 23 6 -1 10 4 9 10 -2
7 2 13 8 13 6 0 9 7 5 15 -3 8 -1 15 4 15 5 0 19 19 31 42 12 23 29 49 38 57
12 11 12 13 1 6 -13 -9 -13 -8 -1 7 7 10 20 18 27 18 13 0 18 12 15 32 0 4 6
5 15 1 9 -3 14 0 12 8 -2 8 3 13 12 11 11 -3 9 3 -5 20 -19 22 -19 22 -1 8 18
-14 19 -13 13 4 -6 16 -5 17 7 7 11 -9 16 -9 22 0 4 7 3 9 -3 6 -6 -4 -14 0
-17 9 -3 8 -2 12 4 9 6 -3 10 0 10 7 0 10 2 10 9 0 4 -8 12 -13 17 -12 5 1 10
-4 12 -12 2 -9 0 -8 -7 2 -6 8 -11 10 -11 5 0 -12 20 -35 30 -35 4 0 6 15 5
34 -2 25 2 33 12 29 9 -4 11 0 7 11 -4 10 -1 16 7 16 7 0 9 3 6 6 -4 4 -14 1
-24 -7 -15 -12 -16 -12 -11 2 4 9 1 22 -5 29 -10 10 -7 10 11 0 22 -11 23 -10
11 11 -10 19 -9 24 5 35 10 7 13 13 6 16 -6 2 -8 11 -5 21 4 9 11 15 15 12 5
-3 11 4 15 15 6 20 11 22 55 24 24 1 70 -33 70 -53 0 -5 9 -8 20 -6 11 2 20
-1 20 -7 0 -7 5 -6 14 1 9 8 16 8 20 2 8 -12 60 -8 78 7 11 9 18 7 30 -8 9
-10 14 -21 11 -24 -3 -3 2 -8 11 -12 9 -3 13 -10 10 -15 -3 -5 2 -12 10 -15 9
-3 14 -10 11 -15 -6 -9 51 -64 65 -64 5 0 11 -3 15 -7 4 -3 20 -2 36 2 16 5
32 9 35 9 3 -1 8 2 11 5 3 3 -4 4 -15 1 -13 -2 -26 3 -33 13 -9 15 -10 15 -5
-3 l6 -20 -15 20 c-9 11 -23 29 -33 41 -29 35 -53 84 -47 94 4 6 3 10 -2 9
-27 -5 -32 2 -22 25 10 21 15 23 30 13 10 -6 15 -15 13 -19 -3 -4 5 -8 18 -9
22 0 22 -1 3 -9 -19 -8 -19 -9 3 -9 12 -1 22 -5 22 -11 0 -5 9 -10 20 -10 11
0 20 6 20 14 0 8 6 17 13 19 7 3 5 6 -5 6 -11 1 -15 6 -12 16 7 19 -34 36 -57
24 -10 -5 -20 -4 -27 3 -15 15 -82 19 -82 4 0 -8 -3 -8 -8 1 -4 7 -17 11 -29
10 -12 0 -19 -5 -17 -9 3 -4 -2 -8 -11 -8 -9 0 -13 5 -10 10 3 6 2 10 -3 10
-6 0 -13 -8 -17 -18 -6 -15 -8 -15 -25 5 -14 18 -19 20 -24 8 -3 -8 -1 -15 4
-15 6 0 10 -5 10 -12 0 -6 -7 -4 -18 5 -10 10 -22 14 -26 10 -4 -4 -4 0 -1 9
4 9 1 19 -6 24 -7 4 -10 3 -6 -3 3 -5 0 -10 -7 -10 -8 0 -11 8 -8 19 3 12 -1
18 -11 18 -23 0 -15 52 9 61 13 5 15 8 4 9 -12 0 -11 3 3 14 10 8 19 18 20 23
1 4 5 7 9 6 5 -2 8 4 8 13 0 19 25 46 35 36 4 -4 6 -2 5 3 -6 29 1 44 17 38
12 -5 15 -2 10 10 -3 8 1 21 8 27 8 7 13 17 12 23 -1 7 5 11 14 11 11 -1 15 5
12 16 -4 15 3 16 54 13 78 -4 83 -5 77 -15 -3 -4 12 -8 33 -7 21 0 32 3 26 6
-9 3 -10 10 -3 23 8 15 6 17 -9 13 -10 -2 -25 2 -33 11 -9 8 -18 12 -22 9 -3
-4 -6 -1 -6 5 0 7 -8 12 -19 12 -20 0 -28 22 -38 105 -3 28 -10 53 -17 57 -8
6 -7 8 1 8 7 0 12 3 11 8 -3 13 14 62 21 62 4 0 7 18 6 41 -1 22 2 42 5 44 9
6 7 47 -3 63 -5 7 -3 12 3 12 7 0 8 6 1 18 -10 18 -16 77 -13 125 1 17 8 27
18 27 8 0 13 4 10 9 -3 5 6 16 20 26 41 26 63 48 59 56 -11 17 32 33 98 35 62
2 97 7 117 14 3 1 8 2 13 1 4 0 7 3 7 8 0 6 9 8 20 6 11 -2 20 0 20 5 0 4 10
7 23 5 168 -22 172 -23 172 -25 0 -2 11 -3 25 -4 14 -1 30 -4 35 -7 6 -4 24
-5 40 -3 17 2 38 4 47 5 10 0 20 4 23 10 4 5 17 9 30 9 13 0 30 6 37 13 7 8
23 13 36 12 13 -1 25 2 28 6 2 4 13 6 24 4 11 -2 20 0 20 5 0 5 8 7 18 5 10
-2 23 4 29 13 8 14 6 17 -13 17 -12 0 -20 -3 -17 -7 4 -7 -38 -13 -61 -9 -4 1
-15 -4 -24 -11 -13 -11 -14 -11 -8 0 7 11 4 12 -11 3 -11 -6 -23 -7 -27 -4 -3
3 -6 1 -6 -5 0 -7 -3 -11 -7 -11 -5 1 -12 0 -18 -1 -5 -1 -14 -3 -20 -5 -5 -1
-20 -3 -33 -3 -15 -1 -21 -6 -16 -14 5 -10 4 -10 -6 -1 -8 7 -22 8 -41 3 -16
-5 -27 -5 -24 -1 8 14 -106 44 -180 47 -38 2 -78 4 -88 4 -15 1 -16 3 -2 16 8
9 15 20 15 25 0 6 15 1 33 -11 28 -19 29 -19 10 -2 -28 25 -28 27 -3 29 13 1
18 -2 13 -10 -5 -9 -3 -9 8 0 12 10 18 10 28 0 10 -8 15 -9 18 -1 2 6 15 9 28
6 17 -3 25 0 26 9 0 8 2 22 4 32 7 37 -62 48 -99 15 -10 -9 -25 -14 -34 -11
-9 4 -13 2 -9 -4 5 -7 0 -9 -13 -6 -13 3 -20 0 -20 -8 0 -10 -3 -10 -11 -2 -9
9 -15 8 -26 -3 -8 -8 -23 -14 -33 -14 -10 0 -22 -4 -25 -10 -3 -5 -17 -10 -31
-10 -14 0 -23 -4 -20 -9 4 -5 -3 -7 -14 -4 -12 3 -20 0 -20 -7 0 -10 -3 -10
-15 0 -9 7 -15 8 -15 2 0 -5 -9 -8 -20 -5 -11 3 -20 10 -20 15 0 6 -7 5 -15
-2 -9 -7 -18 -10 -22 -7 -3 4 -12 -1 -20 -11 -9 -11 -12 -11 -7 -2 6 12 4 13
-7 3 -19 -19 -49 -16 -51 5 -1 9 -2 35 -3 57 -1 22 -4 47 -8 55 -3 8 -8 27
-11 43 -4 15 -22 44 -42 64 -35 36 -36 38 -29 97 4 34 8 69 10 78 3 14 -6 60
-19 103 -2 6 -6 22 -11 38 -4 15 -10 27 -14 27 -4 0 -8 6 -9 13 -1 6 -4 26 -7
42 -5 26 -2 32 25 48 33 18 62 22 74 10 3 -4 13 -8 21 -10 33 -7 41 -10 65
-23 14 -8 29 -13 33 -12 4 1 10 -5 13 -13 5 -11 10 -12 27 -4 17 10 19 9 14
-6 -6 -14 -3 -13 19 4 14 11 25 22 24 26 -1 10 25 33 32 28 4 -2 5 4 1 14 -3
10 -2 15 2 11 5 -5 13 2 19 15 7 12 16 22 21 22 23 1 81 38 99 62 11 14 14 23
8 19 -26 -16 39 67 74 95 20 16 34 29 30 29 -4 0 -1 6 6 14 7 8 16 12 21 9 4
-2 7 3 7 11 0 10 10 14 30 14 37 -1 68 31 44 45 -19 11 -56 -2 -72 -25 -7 -10
-18 -15 -24 -12 -7 5 -8 2 -3 -6 6 -10 3 -11 -16 -6 -13 4 -37 8 -53 9 -26 2
-29 -1 -32 -33 -2 -19 -8 -44 -13 -55 -32 -74 -55 -114 -62 -109 -5 3 -9 2 -9
-3 0 -9 -61 -39 -72 -35 -5 1 -8 -3 -8 -8 0 -6 -18 -17 -40 -26 -22 -9 -40
-20 -40 -25 0 -5 -10 -5 -22 0 -13 4 -31 7 -40 6 -10 -2 -18 1 -18 7 0 6 -7 7
-16 4 -8 -3 -12 -2 -9 4 3 6 1 10 -4 10 -6 0 -11 6 -11 14 0 19 -25 27 -39 13
-9 -9 -11 -8 -6 4 5 13 0 15 -24 11 -17 -2 -29 -8 -26 -12 3 -4 -2 -10 -10
-13 -10 -4 -12 -1 -8 11 6 14 5 15 -9 2 -9 -8 -14 -18 -11 -22 4 -8 -8 -10
-42 -10 -30 0 -35 2 -35 20 0 10 -6 24 -12 31 -10 10 -10 12 -1 7 8 -4 7 2 -2
21 -18 35 -19 93 -2 117 9 12 26 18 50 18 46 0 73 24 82 70 4 20 13 39 20 42
16 6 55 -4 55 -13 0 -9 6 -10 79 -15 80 -5 174 33 183 74 2 8 10 21 18 27 13
11 12 12 -5 6 -16 -5 -18 -4 -9 8 11 13 20 46 29 98 2 13 10 28 17 32 7 5 9 9
4 9 -6 0 -1 7 10 16 10 8 12 13 4 9 -8 -4 -6 2 6 12 11 10 18 25 16 32 -3 8 0
11 6 7 5 -3 12 1 15 8 4 11 18 14 51 10 25 -2 48 0 51 6 4 6 10 8 15 5 13 -8
64 20 92 49 45 46 55 63 62 101 1 6 4 15 7 20 13 24 -5 135 -22 135 -5 0 -9 9
-9 19 0 11 -4 22 -9 26 -6 3 -7 15 -5 28 3 12 7 39 8 59 1 21 5 40 8 44 4 3 3
16 -2 29 -5 13 -7 25 -4 27 2 3 -1 20 -8 39 -13 39 -66 94 -100 104 -13 4 -25
11 -28 16 -12 18 -150 35 -150 18 0 -4 -6 -6 -12 -4 -7 3 -25 -6 -41 -20 -15
-15 -42 -31 -60 -37 -50 -17 -77 -38 -103 -79 -21 -34 -27 -37 -64 -35 -22 2
-40 -2 -40 -7 0 -6 -3 -8 -6 -4 -3 3 -18 -5 -32 -19 -15 -13 -39 -24 -53 -24
-28 0 -82 -36 -74 -50 3 -4 -2 -11 -11 -14 -9 -4 -14 -9 -11 -12 8 -8 -26 -76
-45 -92 -35 -28 -126 -19 -165 17 -11 11 -24 17 -29 13 -4 -4 -4 2 0 12 5 15
4 17 -7 8 -10 -9 -17 -8 -25 0 -9 9 -12 9 -12 0 0 -7 -5 -12 -11 -12 -5 0 -8
4 -5 8 3 4 -15 19 -40 32 -24 14 -44 28 -44 33 0 4 -4 5 -10 2 -5 -3 -10 -2
-10 3 0 19 -89 13 -132 -9 -24 -12 -45 -25 -48 -29 -11 -15 -50 -31 -50 -20 0
6 -4 9 -9 5 -10 -5 -101 76 -101 90 0 11 -53 55 -67 55 -6 0 -15 5 -19 12 -5
7 -2 8 7 3 11 -6 12 -5 2 6 -7 7 -13 17 -13 22 0 4 6 5 13 1 9 -6 9 -5 0 7
-16 20 49 157 81 169 26 9 77 6 122 -8 17 -5 37 -6 45 -2 7 5 16 7 20 4 13 -7
59 18 52 29 -3 6 -1 7 5 3 6 -4 19 3 29 15 48 58 86 78 146 74 15 0 27 3 27 8
0 4 3 6 8 3 12 -7 41 19 52 50 19 50 31 213 18 254 -13 41 -29 70 -38 70 -5 0
-10 5 -10 11 0 31 -70 60 -115 48 -47 -13 -61 -3 -80 59 -10 31 -21 62 -26 67
-4 6 -7 12 -6 15 2 10 -47 60 -59 60 -7 0 -14 4 -16 10 -5 14 -67 15 -116 1
-23 -7 -47 -9 -52 -6 -6 3 -10 2 -10 -3 0 -6 -9 -8 -21 -5 -17 5 -20 12 -17
47 1 22 10 50 20 60 16 18 23 37 19 59 0 4 3 7 9 7 12 0 9 22 -5 32 -6 5 -6 8
2 8 8 0 9 10 1 36 -15 55 -18 73 -24 149 -4 39 -10 78 -15 87 -13 25 -11 59 6
92 8 15 15 35 15 42 0 8 5 14 10 14 6 0 9 6 8 13 -2 6 3 11 10 9 6 -1 12 4 12
12 0 8 14 17 30 21 17 4 30 11 30 17 0 6 3 9 6 5 9 -9 106 42 100 52 -9 14 40
64 54 56 9 -5 11 -4 6 4 -4 6 0 14 9 17 9 4 14 13 11 20 -3 8 -2 13 2 11 4 -1
8 1 10 6 3 11 46 52 55 52 4 0 12 6 16 14 5 8 14 10 21 6 9 -5 11 -4 6 3 -4 7
-1 12 8 12 9 0 16 4 16 9 0 5 9 12 19 16 11 3 18 12 15 19 -4 9 6 12 36 10 22
-1 40 2 40 6 0 5 9 7 20 5 24 -5 66 48 53 67 -4 7 -6 21 -5 30 7 40 -84 61
-123 28 -15 -13 -45 -67 -45 -82 0 -20 -43 -97 -51 -92 -5 3 -9 1 -9 -5 0 -8
-40 -27 -48 -22 -5 3 -26 -23 -44 -54 -10 -17 -22 -29 -28 -27 -5 1 -10 -4
-10 -12 0 -8 -9 -18 -20 -21 -11 -4 -18 -11 -15 -16 4 -5 1 -9 -6 -9 -7 0 -10
-3 -6 -6 6 -7 -18 -32 -54 -56 -20 -12 -29 -14 -38 -5 -8 8 -11 8 -11 -2 0 -8
-6 -11 -17 -7 -10 4 -14 4 -11 0 8 -8 -51 -40 -104 -56 -21 -6 -51 -26 -68
-45 -27 -30 -36 -33 -85 -33 -32 0 -55 4 -55 11 0 5 -4 8 -9 4 -5 -3 -17 2
-25 11 -15 15 -49 17 -168 12 -17 0 -41 11 -65 31 -21 17 -43 36 -50 41 -6 5
-37 23 -68 39 -50 25 -62 27 -94 19 -20 -6 -41 -14 -48 -20 -7 -5 -41 -11 -76
-12 -64 -3 -108 -22 -135 -59 -8 -10 -23 -27 -35 -37 -11 -11 -18 -20 -15 -20
3 0 0 -19 -7 -42 -14 -50 -12 -145 4 -161 6 -6 11 -19 11 -29 0 -9 6 -21 13
-25 20 -13 47 -60 47 -83 0 -11 6 -20 13 -20 8 0 7 -4 -3 -10 -13 -9 -13 -10
0 -10 9 0 11 -3 5 -8 -15 -10 -50 -66 -47 -74 1 -5 -6 -8 -15 -8 -9 0 -14 -3
-10 -6 3 -3 -7 -17 -24 -31 -16 -14 -27 -29 -24 -33 3 -5 -1 -15 -9 -23 -8 -8
-13 -17 -10 -20 3 -3 1 -13 -5 -24 -5 -10 -12 -26 -15 -35 -3 -9 -23 -22 -45
-29 -23 -7 -41 -16 -41 -21 0 -4 -7 -8 -15 -8 -8 0 -15 -7 -15 -16 0 -8 -4
-13 -9 -10 -5 3 -14 -9 -22 -27 -7 -17 -20 -39 -28 -47 -21 -19 -77 -22 -91
-5 -9 11 -15 11 -31 -3 -10 -9 -19 -22 -19 -29 0 -7 -9 -13 -20 -13 -11 0 -20
5 -20 12 0 6 -3 8 -7 5 -3 -4 -16 0 -29 8 -12 8 -34 16 -48 19 -14 3 -34 12
-43 21 -19 20 -29 100 -15 135 5 14 9 27 8 30 0 3 6 17 16 31 26 40 26 75 0
97 -15 13 -19 23 -12 27 8 5 8 11 -1 21 -9 11 -9 17 1 29 7 8 9 15 5 15 -5 0
-1 8 8 18 10 10 14 22 10 27 -5 4 -1 6 8 2 12 -4 16 0 15 16 -3 31 15 67 28
61 6 -3 4 0 -4 8 -17 15 -23 48 -8 48 6 0 8 7 4 15 -3 8 -1 28 5 43 6 15 9 27
7 28 -2 0 5 8 15 18 9 10 15 21 12 26 -3 4 2 10 10 14 8 3 15 10 15 15 0 5 20
30 45 55 25 26 45 51 45 57 0 5 3 8 8 5 4 -2 16 2 27 10 10 8 13 14 6 14 -7 0
-9 5 -6 10 4 6 10 8 15 5 5 -3 12 5 16 17 4 13 11 26 17 29 5 4 11 22 13 40 3
23 1 29 -5 20 -5 -8 -7 -20 -4 -28 3 -8 0 -13 -8 -11 -8 2 -13 -3 -11 -9 1 -7
-3 -13 -9 -13 -5 0 -7 -6 -3 -12 4 -7 4 -10 -1 -6 -4 4 -14 0 -22 -10 -13 -15
-13 -15 -4 4 6 12 7 25 3 29 -4 5 -2 5 4 2 16 -9 37 37 29 62 -4 15 -2 20 7
18 7 -2 10 -2 6 0 -5 3 -8 11 -8 19 0 9 4 13 8 10 5 -3 9 1 9 9 0 22 -4 19
-32 -25 -25 -40 -26 -68 -2 -53 7 4 6 0 -2 -10 -14 -18 -26 -23 -17 -8 3 5 -1
11 -9 15 -8 3 -17 0 -21 -6 -4 -7 -3 -8 4 -4 7 4 12 3 12 -3 0 -5 -9 -13 -20
-16 -11 -4 -18 -11 -15 -16 4 -5 1 -9 -5 -9 -6 0 -8 -4 -5 -10 3 -5 -1 -10 -9
-10 -9 0 -15 -4 -14 -9 2 -5 -6 -17 -17 -25 -13 -10 -14 -14 -4 -11 10 4 16 0
16 -10 0 -8 -2 -13 -5 -10 -8 8 -43 -16 -37 -25 3 -5 0 -12 -8 -17 -17 -11
-80 -93 -71 -93 4 0 0 -8 -9 -18 -10 -10 -14 -22 -10 -25 3 -4 1 -7 -5 -7 -7
0 -12 -9 -12 -19 0 -11 -5 -23 -10 -26 -7 -4 -6 -13 1 -27 8 -16 8 -19 -1 -13
-9 6 -11 0 -8 -24 2 -17 1 -31 -4 -31 -4 0 -8 -9 -8 -20 0 -11 -7 -23 -15 -26
-8 -4 -15 -10 -15 -15 0 -6 -9 -19 -19 -30 -11 -12 -18 -31 -15 -45 2 -13 5
-35 7 -47 2 -13 7 -28 10 -34 3 -5 0 -21 -8 -36 -8 -15 -12 -27 -10 -27 2 0
-7 -11 -21 -25 -14 -14 -23 -29 -19 -34 3 -5 0 -11 -5 -13 -6 -2 -12 -12 -13
-23 -2 -31 -30 -53 -55 -44 -14 5 -20 14 -16 24 3 8 1 15 -5 15 -17 0 -101 91
-107 117 -4 13 -10 23 -15 23 -5 0 -9 11 -9 24 0 20 -4 24 -26 21 -19 -2 -28
4 -36 24 -6 14 -12 30 -12 34 -1 4 -5 11 -11 15 -15 11 -18 42 -3 42 10 0 10
2 -1 9 -8 5 -11 16 -6 30 3 12 11 19 16 16 5 -3 6 0 4 8 -3 7 5 25 19 40 14
15 21 27 16 27 -6 0 -1 9 10 20 11 11 20 23 21 28 0 4 2 17 5 30 2 13 0 21 -5
18 -5 -3 -11 3 -14 14 -3 13 -1 18 5 13 7 -4 8 -1 2 8 -13 21 -14 39 -2 39 6
0 3 11 -6 25 -15 23 -15 24 1 18 10 -3 15 -3 11 2 -4 4 -3 17 3 28 7 13 8 17
1 13 -12 -7 -10 39 1 51 11 11 8 25 -4 17 -7 -4 -6 2 1 17 10 17 10 24 1 27
-6 2 -8 8 -5 13 3 5 9 23 14 40 6 22 6 28 -3 22 -9 -5 -8 -2 0 9 7 8 10 18 6
21 -3 4 -2 7 3 7 5 0 9 11 9 25 0 14 -3 25 -6 25 -4 0 -3 18 1 40 4 22 6 40 3
40 -2 0 1 9 7 20 6 11 21 20 34 20 24 0 81 38 72 47 -3 3 -1 14 4 24 7 12 7
20 0 24 -6 4 -8 11 -5 16 4 5 1 9 -5 9 -6 0 -9 4 -6 9 7 10 -40 34 -75 38 -17
2 -34 -6 -49 -22z m600 -494 c0 -5 -8 -8 -17 -7 -10 0 -17 -5 -15 -12 1 -8 -2
-11 -7 -8 -5 4 -12 0 -14 -6 -4 -9 -6 -9 -6 -1 -1 6 6 19 15 27 17 17 44 21
44 7z m-876 -666 c-29 -22 -40 -18 -14 5 13 11 26 18 28 15 3 -3 -3 -12 -14
-20z m1925 -382 c8 -27 6 -32 -19 -47 -22 -12 -29 -13 -33 -4 -4 8 -6 7 -6 -4
-1 -11 -8 -16 -20 -13 -14 3 -18 -1 -14 -11 3 -8 1 -14 -5 -12 -13 4 -63 -62
-56 -73 3 -5 -3 -6 -12 -2 -10 4 -15 2 -11 -3 3 -6 -3 -11 -14 -11 -11 -1 -17
2 -14 7 3 5 -3 18 -14 29 -13 13 -16 21 -8 23 9 2 6 9 -6 21 -18 18 -19 18
-12 -3 6 -19 5 -20 -14 -8 -12 7 -21 16 -21 21 0 4 5 5 10 2 17 -11 11 7 -7
20 -27 20 -45 7 -22 -16 11 -11 17 -24 14 -29 -3 -6 2 -7 12 -4 14 4 15 3 4
-4 -9 -7 -10 -12 -2 -16 6 -4 11 -2 11 4 0 6 5 8 11 5 6 -5 4 -12 -8 -21 -16
-12 -15 -16 3 -13 4 0 11 -5 16 -13 6 -9 7 -6 3 10 -7 23 9 31 18 9 8 -22 -8
-38 -28 -31 -11 5 -16 3 -12 -2 3 -6 -4 -11 -15 -11 -12 -1 -25 -8 -29 -15 -5
-7 -9 -9 -9 -3 0 5 -5 4 -11 -2 -6 -6 -18 -9 -25 -6 -8 3 -14 -1 -14 -8 0 -11
-2 -11 -9 1 -14 20 -3 32 18 20 23 -12 36 -1 16 14 -10 7 -12 16 -6 25 8 12
13 12 24 3 11 -10 17 -9 26 1 11 14 6 27 -11 27 -5 0 -6 -4 -3 -10 4 -6 -1 -7
-11 -3 -11 4 -13 8 -6 11 7 2 10 8 7 13 -4 5 0 6 8 3 8 -3 14 2 14 11 0 9 -5
14 -11 12 -6 -2 -24 2 -41 10 -21 10 -23 13 -8 9 13 -2 26 0 29 5 5 8 -10 13
-29 10 -5 -1 -6 3 -2 8 3 6 12 8 19 5 7 -3 16 2 20 11 3 9 11 13 16 10 6 -4
17 -2 25 5 9 7 15 8 20 0 3 -5 14 -10 23 -10 13 0 14 2 4 9 -10 6 -6 10 15 16
55 14 85 17 79 6 -4 -5 -1 -13 6 -17 7 -4 10 -4 6 1 -11 12 11 45 26 39 8 -3
17 0 21 5 3 6 11 9 16 6 5 -4 17 -2 26 4 21 11 21 11 32 -26z m-364 -105 c5 4
5 1 1 -6 -6 -10 -11 -10 -22 -1 -8 6 -14 14 -14 16 0 3 6 0 13 -6 8 -6 18 -7
22 -3z m27 -15 c-6 -2 -10 -9 -6 -14 3 -5 0 -9 -5 -9 -12 0 -14 13 -4 23 3 4
11 7 17 6 6 0 5 -3 -2 -6z m-47 -61 c-3 -3 -11 0 -18 7 -9 10 -8 11 6 5 10 -3
15 -9 12 -12z m561 -113 c10 -8 11 -16 4 -30 -6 -10 -12 -45 -13 -76 -1 -32
-6 -61 -12 -65 -7 -5 -6 -8 0 -8 9 0 11 -25 6 -60 -2 -11 -51 -6 -51 5 0 6 -8
18 -17 26 -37 32 -61 68 -63 91 -4 46 1 59 37 99 32 35 41 40 66 35 17 -3 36
-11 43 -17z m1066 -1523 c-4 -6 -7 -14 -7 -18 0 -19 -11 -14 -11 6 0 12 6 23
13 23 6 0 9 -5 5 -11z m-7682 -1156 c0 -5 -4 -10 -10 -10 -5 0 -10 5 -10 10 0
6 5 10 10 10 6 0 10 -4 10 -10z m1543 -827 c-3 -6 -13 -10 -24 -8 -10 2 -19 0
-19 -6 0 -5 -5 -9 -11 -9 -8 0 -8 5 1 15 7 8 9 15 4 15 -5 1 2 10 16 21 23 20
24 20 31 2 3 -10 4 -23 2 -30z m6067 32 c0 -12 -19 -12 -23 0 -4 9 -1 12 9 8
7 -3 14 -7 14 -8z m90 1 c0 -3 -4 -8 -10 -11 -5 -3 -10 -1 -10 4 0 6 5 11 10
11 6 0 10 -2 10 -4z m-6310 -88 c0 -18 -2 -20 -9 -8 -6 8 -7 18 -5 22 9 14 14
9 14 -14z m142 -2 c7 4 8 2 4 -5 -9 -14 -36 3 -36 23 0 6 5 3 11 -7 6 -9 15
-14 21 -11z m-332 -136 c0 -5 -5 -10 -11 -10 -5 0 -7 5 -4 10 3 6 8 10 11 10
2 0 4 -4 4 -10z m-220 -58 c0 -4 -9 -13 -20 -20 -19 -12 -20 -11 -8 8 13 20
28 27 28 12z m2060 -241 c0 -17 -18 -21 -24 -6 -3 9 0 15 9 15 8 0 15 -4 15
-9z m-370 -15 c0 -3 -4 -8 -10 -11 -5 -3 -10 -1 -10 4 0 6 5 11 10 11 6 0 10
-2 10 -4z m540 -66 c-8 -5 -19 -10 -25 -10 -5 0 -3 5 5 10 8 5 20 10 25 10 6
0 3 -5 -5 -10z m105 0 c3 -5 1 -10 -4 -10 -6 0 -11 5 -11 10 0 6 2 10 4 10 3
0 8 -4 11 -10z m266 -37 c13 -16 12 -17 -3 -4 -17 13 -22 21 -14 21 2 0 10 -8
17 -17z m-1384 -42 c0 -11 -5 -18 -9 -15 -4 3 -5 11 -1 19 7 21 12 19 10 -4z
m28 -10 c3 -5 2 -12 -3 -15 -5 -3 -9 1 -9 9 0 17 3 19 12 6z m1355 -31 c0 -5
-2 -10 -4 -10 -3 0 -8 5 -11 10 -3 6 -1 10 4 10 6 0 11 -4 11 -10z m68 -21
c-10 -5 -18 -15 -18 -21 0 -6 7 -5 18 3 16 13 16 13 -1 -7 -9 -11 -15 -24 -12
-27 3 -4 0 -3 -6 2 -6 5 -19 7 -28 3 -9 -3 -3 9 14 26 16 18 34 32 40 32 5 0
2 -5 -7 -11z m-1428 -233 c0 -9 -30 -14 -35 -6 -4 6 3 10 14 10 12 0 21 -2 21
-4z m-205 -66 c-3 -6 0 -13 9 -16 8 -3 12 -12 9 -20 -3 -7 2 -17 11 -20 12 -5
13 -10 5 -26 -8 -15 -8 -19 0 -13 7 4 18 1 26 -5 11 -9 19 -10 28 -1 10 8 18
7 32 -3 13 -9 15 -15 6 -20 -7 -5 -15 -5 -18 -2 -3 3 -12 1 -19 -5 -7 -5 -25
-12 -41 -15 -15 -2 -23 -1 -18 3 16 13 16 33 0 33 -8 0 -14 -3 -14 -7 4 -22
-3 -32 -16 -27 -8 4 -15 10 -15 15 0 4 6 6 13 3 8 -3 14 1 15 8 0 7 3 23 6 36
3 16 1 22 -7 19 -7 -3 -11 -10 -9 -17 3 -13 -15 -30 -32 -30 -6 0 -1 7 10 15
10 8 15 15 10 15 -5 0 -2 8 5 17 12 15 12 16 -3 10 -12 -4 -15 -2 -11 9 3 7
10 14 17 14 6 0 5 4 -3 9 -12 8 -8 31 5 31 3 0 2 -5 -1 -10z m187 -92 c-7 -7
-16 -7 -28 0 -14 8 -13 10 10 10 18 0 24 -4 18 -10z m3348 -422 c0 -2 -7 -7
-16 -10 -8 -3 -12 -2 -9 4 6 10 25 14 25 6z m-20 -26 c13 7 19 6 24 -5 3 -8 1
-17 -4 -20 -6 -4 -7 -17 -4 -30 3 -12 1 -26 -5 -29 -5 -4 -8 -13 -4 -21 6 -18
-13 -20 -23 -3 -4 6 1 17 11 25 14 9 15 13 4 13 -12 0 -12 2 1 10 10 6 11 10
3 10 -20 0 -28 -4 -25 -13 1 -5 -3 -5 -9 -1 -8 5 -9 3 -4 -6 6 -9 4 -11 -5 -5
-8 5 -4 -6 9 -23 12 -18 28 -32 34 -32 7 0 6 -4 -3 -10 -10 -6 -21 -3 -35 10
-26 25 -42 26 -24 3 13 -16 12 -17 -4 -4 -13 10 -14 17 -7 26 7 9 7 15 1 19
-5 4 -14 -1 -19 -10 -8 -15 -10 -14 -16 2 -4 10 -4 15 0 12 10 -11 36 20 28
33 -4 8 -3 9 4 5 7 -4 12 -2 12 3 0 6 8 11 18 12 9 0 12 3 5 6 -10 3 -10 7 0
18 7 7 13 9 15 4 2 -5 11 -5 22 1z m-90 -54 c0 -3 -4 -8 -10 -11 -5 -3 -10 -1
-10 4 0 6 5 11 10 11 6 0 10 -2 10 -4z m-29 -53 c13 -16 12 -17 -3 -4 -10 7
-18 15 -18 17 0 8 8 3 21 -13z m69 -78 c0 -5 -5 -3 -10 5 -5 8 -10 20 -10 25
0 6 5 3 10 -5 5 -8 10 -19 10 -25z m25 25 c3 -6 -1 -7 -9 -4 -18 7 -21 14 -7
14 6 0 13 -4 16 -10z m38 -5 c4 -8 1 -17 -5 -21 -7 -4 -8 -3 -4 4 4 7 2 12 -3
12 -6 0 -11 5 -11 10 0 15 17 12 23 -5z m172 -18 c13 4 16 3 11 -5 -11 -18
-43 -15 -50 4 -5 14 -4 15 8 5 7 -6 22 -8 31 -4z m-115 -7 c0 -5 -5 -10 -11
-10 -5 0 -7 5 -4 10 3 6 8 10 11 10 2 0 4 -4 4 -10z m37 -7 c-4 -3 1 -12 11
-20 15 -13 15 -13 -6 -3 -19 9 -23 30 -5 30 4 0 3 -3 0 -7z m-172 -35 c5 4 5
2 2 -4 -4 -7 0 -14 8 -18 9 -3 12 -12 8 -23 -6 -16 -5 -17 12 -3 17 13 18 13
10 0 -5 -8 -10 -21 -11 -28 -2 -8 -6 -17 -9 -20 -4 -4 -5 2 -3 12 1 10 -2 21
-8 23 -7 2 -11 -6 -10 -19 0 -14 -4 -22 -11 -20 -7 1 -13 -2 -13 -8 0 -5 -5
-10 -12 -10 -9 0 -9 3 0 12 19 19 14 32 -5 17 -10 -7 -15 -10 -11 -5 4 5 3 18
-3 29 -8 15 -8 18 1 12 8 -5 11 -3 8 6 -3 8 -10 14 -15 14 -6 0 -14 3 -18 7
-4 3 1 5 12 4 20 -4 43 11 43 26 0 6 -8 4 -17 -3 -17 -13 -17 -12 -4 4 13 17
16 17 26 3 7 -9 16 -12 20 -8z m275 -69 c0 -5 -4 -9 -8 -9 -5 0 -9 7 -9 15 0
8 4 12 9 9 4 -3 8 -9 8 -15z m-346 -19 c-6 -6 -10 -3 -10 10 0 13 4 16 10 10
7 -7 7 -13 0 -20z m426 -140 c0 -5 -8 -10 -17 -10 -15 0 -16 2 -3 10 19 12 20
12 20 0z m-40 -24 c0 -2 -8 -10 -17 -17 -16 -13 -17 -12 -4 4 13 16 21 21 21
13z m55 -17 c-3 -12 -7 -24 -10 -27 -3 -3 -3 5 -1 19 6 30 5 29 10 29 3 0 3
-10 1 -21z m-3351 -177 c3 -5 -1 -9 -9 -9 -8 0 -12 4 -9 9 3 4 7 8 9 8 2 0 6
-4 9 -8z m-16 -27 c12 2 25 -2 29 -10 5 -7 12 -14 18 -14 5 0 11 -5 13 -13 2
-9 0 -8 -7 2 -8 12 -11 11 -18 -6 -8 -21 -9 -20 -55 12 -27 18 -42 34 -35 37
6 2 17 1 23 -4 6 -5 20 -7 32 -4z m3843 -12 c13 -16 12 -17 -3 -4 -10 7 -18
15 -18 17 0 8 8 3 21 -13z m34 -212 c3 -5 0 -13 -6 -17 -7 -4 -9 -3 -5 4 3 5
0 13 -6 15 -9 4 -10 6 -1 6 6 1 14 -3 18 -8z m-161 -19 c3 -5 -1 -9 -9 -9 -8
0 -12 4 -9 9 3 4 7 8 9 8 2 0 6 -4 9 -8z m-109 -212 c3 -5 1 -10 -4 -10 -6 0
-11 5 -11 10 0 6 2 10 4 10 3 0 8 -4 11 -10z m-3715 -55 c-9 -11 -9 -15 -1
-15 7 0 9 -5 5 -12 -6 -10 -4 -10 8 0 10 8 19 9 22 3 3 -5 0 -11 -6 -14 -10
-3 -10 -7 -1 -17 18 -19 44 -5 39 22 -2 17 -9 23 -29 22 -17 -1 -24 3 -20 12
3 10 11 10 31 3 15 -6 29 -11 32 -12 2 -1 3 -12 2 -24 -2 -13 1 -23 7 -23 6 0
8 6 5 14 -3 8 -1 17 5 21 7 4 8 0 4 -11 -5 -13 -3 -15 8 -9 11 6 12 5 2 -6
-16 -16 -17 -33 -2 -23 7 4 7 -1 -1 -16 -11 -21 -10 -22 6 -16 15 6 17 5 7 -5
-18 -18 -16 -34 1 -20 10 8 16 9 21 1 4 -6 3 -10 -2 -9 -20 4 -27 -2 -13 -12
13 -9 12 -10 -2 -5 -10 3 -20 1 -23 -5 -4 -5 -11 -7 -16 -3 -5 3 -6 11 -2 17
13 21 13 39 -1 28 -7 -6 -17 -6 -26 -1 -8 5 -18 6 -22 3 -5 -2 -15 1 -23 7
-11 9 -15 9 -15 1 0 -6 5 -11 11 -11 5 0 7 -5 3 -11 -9 -16 -29 7 -29 34 0 12
-4 23 -10 25 -27 9 -27 35 1 58 34 27 42 30 24 9z m-70 -35 c-13 -8 -12 -10 3
-10 10 0 15 -4 12 -10 -6 -9 8 -14 28 -11 4 0 7 -6 7 -14 0 -21 -10 -19 -42
12 l-28 26 -13 -33 c-9 -21 -17 -28 -22 -21 -4 7 0 20 9 30 9 10 13 21 9 26
-5 4 -3 5 4 1 6 -3 14 -2 18 4 3 5 12 10 18 10 7 0 6 -4 -3 -10z m130 -10 c0
-5 -7 -10 -16 -10 -8 0 -12 5 -9 10 3 6 10 10 16 10 5 0 9 -4 9 -10z m3658
-35 c-3 -3 -9 2 -12 12 -6 14 -5 15 5 6 7 -7 10 -15 7 -18z m90 -50 c-3 -3 -9
2 -12 12 -6 14 -5 15 5 6 7 -7 10 -15 7 -18z m-3998 5 c5 8 9 6 14 -6 4 -10 4
-15 0 -11 -4 4 -13 2 -19 -3 -7 -6 -20 -7 -29 -4 -15 6 -15 7 1 19 12 9 19 10
22 3 2 -7 6 -6 11 2z m191 -25 c12 -19 25 -32 30 -29 5 3 9 0 9 -5 0 -6 4 -11
8 -11 5 0 8 13 8 29 0 28 -9 33 -33 18 -7 -5 -13 -4 -13 2 0 16 38 33 45 20 4
-6 14 -8 22 -5 9 4 11 2 6 -7 -14 -22 -11 -37 7 -37 10 0 21 -7 24 -16 5 -14
4 -15 -8 -5 -16 13 -49 4 -40 -11 4 -7 9 -6 13 1 5 7 14 5 28 -8 16 -15 23
-17 33 -8 10 9 11 9 6 0 -7 -12 5 -18 27 -14 5 1 6 -3 2 -9 -4 -7 -12 -7 -26
0 -10 6 -19 8 -19 4 0 -4 -8 0 -17 8 -11 10 -33 15 -55 13 -21 -1 -36 0 -35 4
3 10 -44 81 -54 81 -5 0 -9 5 -9 10 0 21 22 8 41 -25z m3694 6 c-3 -6 -11 -11
-16 -11 -5 0 -4 6 3 14 14 16 24 13 13 -3z m-3652 -14 c3 -8 -1 -14 -9 -14
-15 0 -18 9 -7 20 9 9 10 9 16 -6z m3471 -45 c3 -5 -1 -9 -9 -9 -8 0 -12 4 -9
9 3 4 7 8 9 8 2 0 6 -4 9 -8z m-3183 -49 c13 -16 12 -17 -3 -4 -10 7 -18 15
-18 17 0 8 8 3 21 -13z m2799 7 c5 8 9 7 13 -4 5 -12 0 -15 -17 -14 -17 2 -22
7 -18 17 4 12 7 12 10 2 3 -10 6 -10 12 -1z m-460 -60 c8 -5 11 -10 5 -10 -5
0 -17 5 -25 10 -8 5 -10 10 -5 10 6 0 17 -5 25 -10z m-39 -43 c-10 -9 -11 -8
-5 6 3 10 9 15 12 12 3 -3 0 -11 -7 -18z m-2134 -2 c0 -8 -4 -12 -9 -9 -5 3
-6 10 -3 15 9 13 12 11 12 -6z m2123 -26 c0 -14 -17 -10 -23 5 -4 10 -1 13 9
9 7 -3 14 -9 14 -14z m40 11 c0 -5 -2 -10 -4 -10 -3 0 -8 5 -11 10 -3 6 -1 10
4 10 6 0 11 -4 11 -10z m54 -12 c-3 -4 -12 -8 -20 -8 -8 0 -13 4 -10 8 3 5 12
9 20 9 8 0 13 -4 10 -9z m-1741 -21 c3 -8 -1 -14 -8 -14 -7 0 -11 6 -8 14 3 7
6 13 8 13 2 0 5 -6 8 -13z m457 -1 c0 -3 -4 -8 -10 -11 -5 -3 -10 -1 -10 4 0
6 5 11 10 11 6 0 10 -2 10 -4z"/>
<path d="M7115 7880 c3 -5 8 -10 11 -10 2 0 4 5 4 10 0 6 -5 10 -11 10 -5 0
-7 -4 -4 -10z"/>
<path d="M7199 7873 c-13 -16 -12 -17 4 -4 9 7 17 15 17 17 0 8 -8 3 -21 -13z"/>
<path d="M7235 7879 c-3 -4 2 -6 10 -5 21 3 28 13 10 13 -9 0 -18 -4 -20 -8z"/>
<path d="M7140 7865 c0 -7 30 -13 34 -7 3 4 -4 9 -15 9 -10 1 -19 0 -19 -2z"/>
<path d="M7070 7839 c0 -5 5 -7 10 -4 6 3 10 8 10 11 0 2 -4 4 -10 4 -5 0 -10
-5 -10 -11z"/>
<path d="M7175 7840 c-4 -6 -1 -9 7 -8 7 2 12 -2 11 -9 -2 -12 23 -12 32 0 3
4 2 5 -2 2 -3 -3 -14 2 -24 11 -11 10 -19 12 -24 4z"/>
<path d="M7100 7755 c-9 -11 -16 -12 -25 -5 -8 7 -15 7 -19 2 -8 -14 24 -24
38 -13 6 5 14 10 19 10 8 1 11 11 4 17 -2 2 -10 -2 -17 -11z"/>
<path d="M2460 4140 c0 -5 7 -7 15 -4 8 4 15 8 15 10 0 2 -7 4 -15 4 -8 0 -15
-4 -15 -10z"/>
<path d="M3015 3003 c2 -10 4 -19 4 -21 1 -1 11 3 24 10 12 7 29 11 37 10 13
-3 13 -2 0 7 -9 7 -19 6 -27 -1 -9 -7 -17 -7 -27 1 -12 10 -14 9 -11 -6z"/>
<path d="M6453 2560 c1 -3 -8 -15 -21 -28 l-23 -23 21 -29 c12 -16 26 -33 32
-36 7 -4 0 8 -15 28 l-27 35 23 21 c13 12 29 22 35 22 7 0 12 4 12 9 0 6 -9 9
-19 8 -11 0 -19 -4 -18 -7z"/>
<path d="M6385 2329 c-5 -7 -10 -24 -11 -37 -3 -23 -2 -23 12 -6 12 17 13 17
8 2 -4 -11 -1 -18 7 -18 7 0 9 3 6 7 -4 3 1 16 10 27 10 12 14 18 9 14 -5 -4
-14 0 -21 9 -10 13 -13 14 -20 2z m19 -15 c3 -8 2 -12 -4 -9 -6 3 -10 10 -10
16 0 14 7 11 14 -7z"/>
<path d="M3405 1861 c-3 -5 -2 -12 3 -15 5 -3 9 1 9 9 0 17 -3 19 -12 6z"/>
<path d="M3433 1851 c0 -11 5 -18 9 -15 4 3 5 11 1 19 -7 21 -12 19 -10 -4z"/>
<path d="M3284 1344 c-6 -3 2 -19 21 -39 33 -37 45 -43 45 -23 0 6 -3 8 -6 5
-8 -7 -50 44 -46 55 1 5 1 8 0 7 -2 0 -8 -3 -14 -5z"/>
<path d="M3369 1289 c-12 -8 -12 -10 0 -18 15 -10 41 -4 41 9 0 13 -26 19 -41
9z"/>
<path d="M3347 1159 c7 -7 15 -10 18 -7 3 3 -2 9 -12 12 -14 6 -15 5 -6 -5z"/>
<path d="M3313 9050 c0 -15 16 -41 34 -60 27 -29 31 -31 27 -12 -4 12 -10 19
-15 16 -5 -3 -10 0 -10 5 -2 12 -5 26 -9 39 -1 4 -2 11 -1 15 1 5 -3 6 -8 3
-5 -4 -12 0 -14 6 -3 7 -5 2 -4 -12z"/>
<path d="M3390 8980 c0 -5 5 -10 11 -10 5 0 7 5 4 10 -3 6 -8 10 -11 10 -2 0
-4 -4 -4 -10z"/>
<path d="M3423 8955 c0 -8 4 -12 9 -9 5 3 6 10 3 15 -9 13 -12 11 -12 -6z"/>
<path d="M3453 8936 c0 -8 3 -14 6 -13 3 1 16 -4 27 -11 12 -6 25 -8 29 -4 5
4 5 -2 1 -13 -4 -11 -4 -17 -1 -13 4 3 19 -7 35 -24 16 -16 33 -27 38 -24 6 3
16 -2 23 -12 13 -15 12 -16 -3 -3 -12 9 -18 10 -18 2 0 -10 14 -15 34 -12 5 1
13 -4 17 -11 6 -9 9 -8 9 6 0 31 -29 57 -51 45 -15 -8 -17 -6 -12 7 5 13 2 15
-17 9 -17 -5 -21 -4 -15 5 6 9 4 11 -5 5 -10 -6 -12 -4 -6 11 4 10 4 15 0 11
-4 -4 -13 2 -21 13 -8 12 -20 17 -30 13 -12 -5 -14 -3 -8 7 5 9 4 11 -3 6 -7
-4 -12 -2 -12 3 0 6 -4 11 -8 11 -5 0 -9 -6 -9 -14z m178 -103 c13 -16 12 -17
-3 -4 -10 7 -18 15 -18 17 0 8 8 3 21 -13z"/>
<path d="M8378 8896 c-61 -21 -77 -49 -83 -135 -1 -20 -3 -39 -4 -43 0 -4 -18
-19 -38 -33 -21 -14 -34 -25 -30 -25 5 0 -7 -13 -25 -30 -18 -16 -36 -30 -40
-30 -5 0 -8 -7 -8 -16 0 -8 -5 -12 -10 -9 -6 4 -25 -8 -43 -26 -17 -18 -25
-29 -17 -24 8 5 2 -5 -15 -21 -16 -16 -36 -28 -44 -25 -8 2 -11 0 -8 -6 4 -6
-1 -10 -11 -9 -9 0 -16 -4 -15 -11 2 -8 -4 -10 -13 -6 -10 4 -20 -1 -26 -11
-5 -9 -15 -13 -21 -10 -7 4 -9 3 -4 -1 4 -5 -3 -20 -15 -33 -13 -14 -17 -22
-10 -18 7 4 12 2 12 -6 1 -9 4 -8 10 3 5 9 23 22 40 29 16 7 30 17 30 22 0 5
6 8 12 6 7 -3 19 2 27 9 7 8 20 12 28 9 9 -4 11 -2 7 6 -5 7 -2 9 9 5 11 -4
14 -2 11 7 -3 8 0 17 7 22 8 5 10 3 4 -6 -5 -8 -4 -11 3 -6 6 3 9 16 7 27 -3
17 -2 19 10 9 12 -10 13 -8 10 9 -2 13 3 22 16 26 10 4 19 13 19 21 0 8 5 12
11 9 5 -4 33 16 61 45 27 28 53 49 56 46 3 -3 16 1 30 10 13 9 21 11 18 5 -4
-6 -2 -11 3 -11 6 0 11 6 11 13 0 8 3 7 10 -3 9 -15 110 -25 110 -10 0 4 10
10 21 13 14 4 20 11 16 21 -4 9 -1 15 5 13 7 -1 12 11 12 28 1 17 6 33 11 37
6 5 6 8 -1 8 -6 0 -10 10 -9 23 2 27 -30 62 -76 81 -28 12 -40 12 -71 2z"/>
<path d="M5630 8721 c0 -6 4 -12 8 -15 5 -3 9 1 9 9 0 8 -4 15 -9 15 -4 0 -8
-4 -8 -9z"/>
<path d="M4487 8659 c7 -7 15 -10 18 -7 3 3 -2 9 -12 12 -14 6 -15 5 -6 -5z"/>
<path d="M4553 8635 c0 -8 4 -12 9 -9 5 3 6 10 3 15 -9 13 -12 11 -12 -6z"/>
<path d="M4610 8581 c0 -6 4 -13 10 -16 6 -3 7 1 4 9 -7 18 -14 21 -14 7z"/>
<path d="M4319 8571 c7 -5 10 -14 7 -20 -4 -6 -5 -11 -2 -11 3 0 10 8 15 18 8
14 5 18 -12 19 -16 2 -18 0 -8 -6z"/>
<path d="M4356 8555 c-9 -26 -7 -32 5 -12 6 10 9 21 6 23 -2 3 -7 -2 -11 -11z"/>
<path d="M4637 8556 c-7 -17 11 -56 25 -56 4 0 5 -8 2 -17 -5 -15 -4 -15 7 1
9 15 9 20 -5 28 -9 5 -14 13 -11 19 3 5 2 16 -3 25 -8 15 -10 15 -15 0z"/>
<path d="M4400 8541 c0 -7 -6 -11 -14 -8 -9 4 -13 0 -11 -11 2 -9 4 -20 4 -24
1 -5 5 -8 11 -8 12 0 50 -32 50 -42 0 -11 -23 -6 -33 7 -5 6 -7 4 -5 -4 5 -16
48 -26 48 -11 0 6 5 10 12 10 6 0 8 -3 5 -6 -9 -9 11 -44 26 -44 8 0 7 3 -2 9
-12 8 -12 12 2 26 20 20 23 32 4 16 -8 -6 -17 -8 -21 -4 -4 4 4 13 16 20 22
13 22 13 -6 7 -18 -4 -27 -3 -23 3 3 5 0 10 -8 10 -11 0 -12 -4 -4 -14 8 -9 8
-13 1 -13 -6 0 -15 6 -19 14 -4 7 -18 19 -31 25 -23 12 -23 13 -5 26 10 7 15
17 10 21 -4 4 -7 2 -7 -5z"/>
<path d="M4320 8526 c0 -2 12 -12 28 -21 l27 -18 -19 21 c-17 20 -36 29 -36
18z"/>
<path d="M6115 8520 c-3 -6 1 -7 9 -4 18 7 21 14 7 14 -6 0 -13 -4 -16 -10z"/>
<path d="M4699 8513 c-1 -5 -1 -11 0 -15 0 -5 -4 -8 -10 -8 -6 0 -9 -6 -6 -14
3 -8 3 -17 -1 -19 -4 -2 -1 -2 6 -1 7 2 15 -3 19 -11 5 -14 7 -13 17 1 11 14
12 11 11 -19 -1 -20 1 -34 6 -32 4 3 9 2 12 -2 2 -5 2 -2 1 5 -2 6 1 12 7 12
6 0 4 7 -5 15 -8 9 -13 22 -10 30 7 17 -11 21 -21 5 -4 -6 -11 -8 -16 -4 -6 3
-3 12 8 20 16 12 16 13 1 8 -13 -4 -16 -1 -13 15 2 12 2 21 -1 21 -2 0 -5 -3
-5 -7z"/>
<path d="M4520 8466 c0 -2 7 -7 16 -10 8 -3 12 -2 9 4 -6 10 -25 14 -25 6z"/>
<path d="M4528 8435 c5 -11 11 -24 12 -30 1 -5 3 -12 6 -14 2 -2 1 7 -1 19 -3
13 -10 28 -16 34 -9 8 -9 6 -1 -9z"/>
<path d="M8055 8420 c-3 -6 1 -7 9 -4 18 7 21 14 7 14 -6 0 -13 -4 -16 -10z"/>
<path d="M4446 8403 c-6 -14 -5 -15 5 -6 7 7 10 15 7 18 -3 3 -9 -2 -12 -12z"/>
<path d="M4580 8411 c0 -6 4 -13 10 -16 6 -3 7 1 4 9 -7 18 -14 21 -14 7z"/>
<path d="M4770 8380 c0 -5 5 -10 10 -10 6 0 10 5 10 10 0 6 -4 10 -10 10 -5 0
-10 -4 -10 -10z"/>
<path d="M373 5052 c-44 -39 -36 -71 21 -79 26 -3 38 -1 42 11 3 8 11 13 19
10 7 -3 15 2 19 11 3 10 -1 18 -12 22 -9 4 -22 14 -29 22 -7 9 -13 12 -13 7 0
-5 -6 -3 -13 3 -11 8 -19 7 -34 -7z"/>
<path d="M870 4951 c0 -5 5 -13 10 -16 6 -3 10 -2 10 4 0 5 -4 13 -10 16 -5 3
-10 2 -10 -4z"/>
<path d="M9146 4665 c4 -9 3 -15 -2 -14 -24 4 -46 -3 -64 -21 -11 -11 -20 -17
-20 -14 0 3 -7 -2 -16 -11 -10 -10 -19 -12 -23 -7 -3 5 -13 0 -22 -12 -16 -20
-16 -22 1 -22 11 0 16 6 12 14 -4 11 -1 12 15 4 16 -9 24 -7 42 9 11 11 21 17
21 13 0 -4 9 4 21 17 11 13 26 24 32 24 14 0 20 22 8 30 -7 4 -8 0 -5 -10z"/>
<path d="M8863 4598 c1 -7 -5 -12 -13 -10 -10 2 -12 0 -5 -7 6 -6 27 -6 55 -1
36 7 47 5 58 -8 7 -10 11 -12 8 -5 -4 6 2 17 11 23 16 10 16 10 -4 5 -12 -3
-25 -1 -28 6 -6 8 -10 7 -16 -2 -7 -11 -9 -11 -9 1 0 13 -1 13 -10 0 -6 -9
-13 -11 -17 -5 -12 15 -33 17 -30 3z"/>
<path d="M8659 4547 c0 -1 -2 -10 -4 -20 -3 -14 0 -16 9 -8 7 6 16 8 19 4 4
-3 7 -2 7 4 0 9 -28 27 -31 20z"/>
<path d="M8772 4524 c-7 -8 -18 -11 -24 -8 -7 4 -8 2 -4 -5 4 -6 11 -9 16 -6
13 8 50 -17 50 -33 0 -7 5 -10 10 -7 6 3 10 -1 10 -10 0 -9 5 -15 12 -13 6 2
22 -7 35 -20 13 -12 28 -20 33 -17 6 4 10 3 9 -2 -4 -21 2 -34 12 -27 6 3 15
1 19 -6 9 -14 70 -22 70 -8 0 5 -8 8 -17 6 -10 -2 -17 3 -15 10 2 10 -25 17
-51 13 -5 -1 -6 3 -2 8 6 11 -29 34 -39 24 -3 -3 -6 -1 -6 6 0 15 -39 54 -69
70 -12 7 -18 17 -15 23 4 6 3 8 -4 4 -5 -3 -12 -2 -14 3 -1 5 -9 3 -16 -5z"/>
<path d="M8708 4513 c7 -3 16 -2 19 1 4 3 -2 6 -13 5 -11 0 -14 -3 -6 -6z"/>
<path d="M8670 4160 c0 -5 5 -10 11 -10 5 0 7 5 4 10 -3 6 -8 10 -11 10 -2 0
-4 -4 -4 -10z"/>
<path d="M8873 4135 c-13 -7 -20 -15 -15 -20 4 -4 -1 -5 -11 -2 -14 5 -16 3
-8 -11 10 -18 11 -24 11 -48 0 -8 5 -12 10 -9 6 3 10 0 10 -8 0 -9 11 -14 30
-14 17 0 30 3 30 7 0 4 6 7 13 8 35 3 106 13 137 18 19 3 41 6 48 7 6 0 12 5
12 11 0 6 4 4 10 -4 8 -12 10 -12 16 4 5 14 9 15 15 4 7 -10 9 -11 9 0 0 7 5
10 10 7 6 -3 10 -1 10 6 0 8 5 7 18 -2 15 -13 16 -12 3 4 -7 9 -19 17 -25 16
-26 -3 -37 2 -31 14 4 6 0 4 -8 -5 -8 -10 -17 -15 -20 -11 -9 9 -88 10 -93 1
-3 -4 -16 -3 -29 2 -14 5 -25 7 -25 4 0 -2 -13 2 -29 10 -16 9 -31 12 -35 9
-3 -4 -6 -1 -6 5 0 13 -27 12 -57 -3z"/>
<path d="M9270 4121 c0 -6 4 -13 10 -16 6 -3 7 1 4 9 -7 18 -14 21 -14 7z"/>
<path d="M9244 4105 c8 -8 18 -15 22 -15 3 0 1 7 -6 15 -7 8 -17 15 -22 15 -5
0 -3 -7 6 -15z"/>
<path d="M2286 4088 c-14 -19 -16 -20 -11 -4 6 19 5 19 -15 1 -25 -22 -25 -22
0 -20 22 1 57 31 48 40 -3 3 -13 -5 -22 -17z"/>
<path d="M2537 4075 c-4 -8 -3 -16 1 -19 4 -3 9 4 9 15 2 23 -3 25 -10 4z"/>
<path d="M2655 4079 c-4 -6 -5 -12 -2 -15 2 -3 7 2 10 11 7 17 1 20 -8 4z"/>
<path d="M8270 4078 c0 -4 4 -8 9 -8 6 0 12 4 15 8 3 5 -1 9 -9 9 -8 0 -15 -4
-15 -9z"/>
<path d="M8295 4060 c-3 -5 -1 -10 4 -10 6 0 11 5 11 10 0 6 -2 10 -4 10 -3 0
-8 -4 -11 -10z"/>
<path d="M2855 4000 c3 -5 8 -10 11 -10 2 0 4 5 4 10 0 6 -5 10 -11 10 -5 0
-7 -4 -4 -10z"/>
<path d="M8370 3979 c0 -5 5 -7 10 -4 6 3 10 8 10 11 0 2 -4 4 -10 4 -5 0 -10
-5 -10 -11z"/>
<path d="M2804 3968 c-5 -7 -3 -8 6 -3 10 6 12 4 7 -9 -4 -10 -3 -15 3 -11 13
8 13 35 1 35 -6 0 -13 -5 -17 -12z"/>
<path d="M8264 3945 c3 -8 -2 -19 -12 -24 -11 -7 -12 -11 -4 -11 7 0 10 -5 6
-12 -4 -7 -3 -8 4 -4 16 10 34 -28 20 -42 -18 -18 6 -40 25 -24 8 7 17 9 20 5
4 -3 7 -1 7 5 0 15 -17 16 -25 2 -3 -5 -10 -10 -16 -10 -5 0 -9 5 -9 10 0 6 7
10 15 10 8 0 15 5 15 11 0 5 6 7 13 3 13 -8 -9 23 -29 41 -15 13 -27 48 -14
40 6 -3 10 -1 10 4 0 6 -7 11 -16 11 -10 0 -14 -6 -10 -15z m26 -50 c13 -14
19 -25 14 -25 -8 1 -50 50 -41 50 2 0 14 -11 27 -25z"/>
<path d="M2786 3915 c-11 -8 -15 -15 -9 -15 6 0 16 7 23 15 16 19 11 19 -14 0z"/>
<path d="M8297 3919 c7 -7 15 -10 18 -7 3 3 -2 9 -12 12 -14 6 -15 5 -6 -5z"/>
<path d="M1864 3831 c3 -5 -1 -14 -9 -21 -8 -7 -15 -20 -15 -30 0 -11 -7 -17
-17 -16 -10 0 -19 -7 -21 -16 -6 -31 29 -20 41 12 6 17 15 30 19 30 4 0 8 6 8
14 0 8 5 16 12 18 7 3 5 7 -6 11 -9 4 -15 3 -12 -2z"/>
<path d="M8299 3803 c-8 -9 -9 -14 -3 -10 7 4 14 0 18 -8 3 -8 13 -15 21 -15
9 0 14 -4 10 -9 -8 -13 38 -10 48 4 6 6 7 3 4 -7 -7 -21 18 -31 33 -13 10 12
8 16 -11 24 -13 4 -29 7 -35 4 -6 -2 -16 6 -23 19 -9 18 -11 19 -7 3 5 -18 4
-18 -10 3 -20 26 -27 27 -45 5z"/>
<path d="M3194 3794 c10 -7 13 -15 7 -18 -5 -4 -13 -1 -17 5 -4 7 -14 2 -29
-15 -12 -14 -25 -22 -29 -18 -4 4 -6 0 -4 -8 2 -8 -2 -14 -8 -13 -6 1 -10 -9
-8 -25 1 -14 -3 -33 -9 -41 -9 -12 -9 -13 1 -7 6 4 12 2 12 -3 0 -6 5 -11 11
-11 8 0 8 5 -1 15 -10 13 -9 15 11 15 19 0 21 2 9 10 -13 8 -12 10 3 10 10 0
22 11 27 25 5 14 12 25 15 25 4 0 3 -4 0 -10 -3 -5 -4 -10 -1 -10 6 0 48 79
44 81 -2 0 -14 2 -27 3 -21 3 -22 2 -7 -10z"/>
<path d="M8355 3740 c-3 -5 -1 -10 4 -10 6 0 11 5 11 10 0 6 -2 10 -4 10 -3 0
-8 -4 -11 -10z"/>
<path d="M8432 3738 c-18 -18 -15 -28 8 -28 10 0 24 -8 29 -17 6 -10 11 -13
11 -8 0 6 9 11 20 11 12 0 16 -4 10 -10 -6 -6 -5 -16 1 -28 5 -10 7 -23 4 -28
-4 -6 -1 -9 7 -8 7 2 12 -3 10 -10 -1 -8 2 -11 8 -7 5 3 10 -1 10 -9 0 -9 3
-16 8 -16 4 0 18 -18 32 -39 13 -22 28 -38 32 -35 4 3 8 -1 8 -9 0 -7 16 -28
36 -45 20 -18 33 -32 29 -32 -4 0 -2 -7 5 -15 14 -17 40 -20 40 -5 0 5 -7 7
-15 3 -9 -3 -15 -2 -14 3 4 18 -13 44 -25 37 -6 -4 -5 1 3 10 12 15 11 17 -3
17 -10 0 -15 4 -11 9 3 5 -1 15 -8 23 -14 13 -17 21 -17 38 0 6 -7 10 -16 10
-8 0 -13 3 -11 8 6 9 -19 33 -27 25 -3 -4 -6 2 -6 12 0 15 -2 16 -17 4 -15
-13 -15 -12 -4 10 7 13 9 21 3 17 -12 -7 -46 43 -45 67 1 12 -6 17 -24 17 -21
0 -23 2 -13 15 10 12 8 14 -9 10 -12 -2 -21 0 -21 6 0 13 -14 11 -28 -3z m45
-23 c0 -8 -4 -12 -9 -9 -5 3 -6 10 -3 15 9 13 12 11 12 -6z m68 -81 c9 -15 12
-23 6 -20 -11 7 -35 46 -28 46 3 0 12 -12 22 -26z"/>
<path d="M1780 3731 c0 -6 -3 -10 -7 -9 -15 3 -63 -22 -63 -32 0 -5 -9 -10
-19 -10 -10 0 -21 -7 -25 -15 -3 -8 -10 -15 -16 -15 -16 0 -91 -80 -85 -90 4
-6 -2 -7 -12 -3 -14 5 -16 3 -6 -7 10 -10 18 -10 42 0 17 7 28 16 26 21 -6 9
33 49 47 49 5 0 6 5 3 10 -3 6 1 10 9 10 8 0 21 6 28 13 14 12 43 30 86 52 19
11 20 14 7 25 -10 9 -15 9 -15 1z"/>
<path d="M8380 3736 c0 -2 7 -9 15 -16 9 -7 15 -8 15 -2 0 5 -7 12 -15 16 -8
3 -15 4 -15 2z"/>
<path d="M3536 3705 c4 -8 11 -15 16 -15 6 0 5 6 -2 15 -7 8 -14 15 -16 15 -2
0 -1 -7 2 -15z"/>
<path d="M3876 3647 c3 -10 9 -15 12 -12 3 3 0 11 -7 18 -10 9 -11 8 -5 -6z"/>
<path d="M3105 3600 c21 -24 26 -25 19 -6 -3 8 -13 17 -22 21 -13 5 -13 2 3
-15z"/>
<path d="M3913 3606 c0 -8 7 -13 16 -11 9 1 23 -3 31 -9 13 -10 13 -9 1 7 -8
9 -16 15 -19 12 -3 -3 -10 0 -17 5 -8 7 -12 5 -12 -4z"/>
<path d="M3993 3603 c4 -6 1 -14 -5 -16 -10 -4 -10 -6 0 -6 7 -1 10 -6 6 -13
-4 -6 -3 -8 4 -5 12 8 10 32 -3 44 -4 4 -5 3 -2 -4z"/>
<path d="M3090 3580 c0 -5 5 -10 11 -10 5 0 7 5 4 10 -3 6 -8 10 -11 10 -2 0
-4 -4 -4 -10z"/>
<path d="M3856 3578 c3 -5 10 -6 15 -3 13 9 11 12 -6 12 -8 0 -12 -4 -9 -9z"/>
<path d="M4028 3573 c6 -2 10 -9 7 -14 -4 -5 2 -6 12 -2 15 6 16 4 5 -9 -8
-10 -9 -18 -3 -22 6 -4 7 -14 4 -24 -5 -14 -3 -15 7 -5 10 9 10 15 2 26 -7 8
-9 17 -5 21 4 4 12 -3 18 -15 10 -18 13 -19 18 -6 4 11 -5 23 -27 36 -18 12
-37 21 -42 20 -5 0 -3 -3 4 -6z"/>
<path d="M4325 3541 c-3 -6 -1 -11 5 -11 6 0 9 -4 6 -8 -3 -5 1 -9 9 -9 12 0
12 3 3 16 -7 9 -13 17 -14 19 -1 2 -5 -1 -9 -7z"/>
<path d="M4420 3536 c7 -7 13 -7 20 0 6 6 3 10 -10 10 -13 0 -16 -4 -10 -10z"/>
<path d="M4226 3531 c-3 -5 0 -14 7 -20 10 -8 18 -7 32 3 15 11 16 13 1 13 -9
0 -16 -4 -16 -9 0 -5 -5 -6 -10 -3 -6 4 -8 11 -5 16 4 5 4 9 1 9 -3 0 -7 -4
-10 -9z"/>
<path d="M4004 3522 c4 -3 14 -7 22 -8 9 -1 13 0 10 4 -4 3 -14 7 -22 8 -9 1
-13 0 -10 -4z"/>
<path d="M4150 3501 l-25 -25 26 16 c14 9 35 15 45 13 10 -2 21 -4 23 -4 2 -1
-4 -11 -15 -23 l-19 -23 23 19 c20 17 21 21 7 36 -20 22 -35 20 -65 -9z"/>
<path d="M3990 3500 c0 -5 5 -10 11 -10 5 0 7 5 4 10 -3 6 -8 10 -11 10 -2 0
-4 -4 -4 -10z"/>
<path d="M3935 3489 c-4 -6 -5 -12 -2 -15 2 -3 7 2 10 11 7 17 1 20 -8 4z"/>
<path d="M3961 3477 c-13 -21 -12 -21 5 -5 10 10 16 20 13 22 -3 3 -11 -5 -18
-17z"/>
<path d="M4090 3481 c0 -11 4 -22 9 -25 4 -3 6 6 3 19 -5 30 -12 33 -12 6z"/>
<path d="M4270 3485 c0 -8 2 -15 4 -15 2 0 6 7 10 15 3 8 1 15 -4 15 -6 0 -10
-7 -10 -15z"/>
<path d="M3870 3486 c0 -2 7 -7 16 -10 8 -3 12 -2 9 4 -6 10 -25 14 -25 6z"/>
<path d="M4042 3464 c10 -10 20 -16 22 -13 3 3 -5 11 -17 18 -21 13 -21 12 -5
-5z"/>
<path d="M4490 3420 c0 -5 5 -10 11 -10 5 0 7 5 4 10 -3 6 -8 10 -11 10 -2 0
-4 -4 -4 -10z"/>
<path d="M8752 3367 c10 -8 15 -17 11 -20 -3 -4 2 -9 11 -13 9 -3 16 -13 16
-21 0 -10 6 -13 16 -9 12 5 15 2 10 -9 -3 -9 -2 -14 3 -10 5 3 11 0 13 -7 3
-7 12 -9 22 -5 9 4 15 11 11 16 -3 6 -13 7 -22 4 -12 -5 -15 -2 -10 10 7 18
-27 43 -52 38 -7 -1 -10 2 -7 8 4 5 -4 15 -16 21 -21 10 -21 10 -6 -3z"/>
<path d="M8860 3260 c-9 -6 -10 -10 -3 -10 6 0 15 5 18 10 8 12 4 12 -15 0z"/>
<path d="M4010 3243 c0 -7 -8 -13 -18 -13 -10 0 -22 -3 -26 -7 -4 -5 -13 -8
-19 -8 -7 -1 -11 -7 -9 -14 2 -8 -3 -11 -12 -8 -10 4 -13 1 -9 -9 3 -8 11 -13
18 -11 21 9 10 -31 -14 -51 -20 -15 -22 -22 -13 -39 8 -15 8 -20 -3 -20 -7 0
-11 6 -8 14 3 7 1 13 -5 13 -6 0 -9 -8 -7 -17 1 -10 8 -17 14 -15 6 1 11 -3
11 -9 0 -5 5 -7 10 -4 6 4 8 15 5 26 -5 14 -2 17 8 13 8 -3 18 -1 21 4 3 5 -6
8 -20 6 -20 -2 -23 0 -14 11 6 7 19 11 29 8 11 -3 21 2 25 13 6 15 4 15 -11 3
-15 -12 -16 -12 -8 1 5 8 10 21 11 28 2 8 6 17 10 20 4 4 5 -1 1 -10 -3 -9 0
-19 8 -22 13 -5 14 0 3 44 -1 8 -7 18 -13 23 -5 4 0 6 12 4 12 -2 26 -7 30
-12 5 -4 2 -5 -6 0 -10 6 -12 4 -6 -5 6 -9 4 -11 -6 -5 -8 5 -10 4 -6 0 15
-17 36 -13 32 6 -3 12 2 19 13 20 14 0 14 2 2 6 -8 3 -18 11 -22 17 -5 8 -8 7
-8 -1z m-40 -45 c0 -4 -4 -8 -9 -8 -6 0 -12 4 -15 8 -3 5 1 9 9 9 8 0 15 -4
15 -9z"/>
<path d="M3555 3220 c3 -5 8 -10 11 -10 2 0 4 5 4 10 0 6 -5 10 -11 10 -5 0
-7 -4 -4 -10z"/>
<path d="M8900 3220 c8 -5 20 -10 25 -10 6 0 3 5 -5 10 -8 5 -19 10 -25 10 -5
0 -3 -5 5 -10z"/>
<path d="M3193 3178 c-2 -16 1 -18 10 -9 7 7 8 14 1 21 -6 6 -10 2 -11 -12z"/>
<path d="M3093 3171 c0 -11 5 -18 9 -15 4 3 5 11 1 19 -7 21 -12 19 -10 -4z"/>
<path d="M3056 3167 c3 -10 9 -15 12 -12 3 3 0 11 -7 18 -10 9 -11 8 -5 -6z"/>
<path d="M3025 3154 c11 -8 19 -18 18 -22 -1 -4 0 -9 2 -10 2 -2 3 2 1 10 -3
21 -16 38 -29 38 -7 0 -3 -7 8 -16z"/>
<path d="M3255 3160 c-3 -5 -1 -10 4 -10 6 0 11 5 11 10 0 6 -2 10 -4 10 -3 0
-8 -4 -11 -10z"/>
<path d="M3890 3159 c0 -5 5 -7 12 -3 7 4 8 3 4 -4 -4 -7 -14 -12 -22 -12 -8
0 -12 -5 -9 -10 4 -6 11 -7 17 -4 7 4 8 2 4 -4 -4 -6 -13 -9 -21 -5 -11 4 -13
1 -9 -10 4 -12 1 -15 -15 -12 -14 3 -18 0 -14 -11 3 -9 0 -14 -8 -12 -8 2 -13
-3 -11 -11 2 -8 -3 -18 -10 -22 -9 -6 -9 -9 -1 -9 6 0 10 -8 8 -17 -1 -10 -8
-17 -15 -15 -6 1 -9 -2 -5 -8 5 -8 11 -8 20 0 11 9 17 5 30 -17 9 -15 14 -20
11 -10 -7 22 3 49 15 41 5 -3 6 -10 3 -16 -4 -7 -2 -8 5 -4 6 4 8 12 5 18 -5
7 -2 9 8 5 17 -6 19 16 3 30 -4 4 -5 3 -2 -3 8 -14 -20 -27 -28 -14 -4 6 -2
10 4 10 5 0 8 12 7 28 -4 28 32 82 55 82 8 0 8 4 -1 15 -14 17 -40 20 -40 4z
m-33 -84 c-4 -8 -2 -17 4 -20 5 -4 6 -12 2 -18 -8 -12 -9 -18 -12 -38 -1 -8
-5 -8 -15 0 -17 14 -15 39 3 50 7 5 12 11 12 15 -2 16 0 26 5 26 3 0 4 -7 1
-15z"/>
<path d="M3840 3040 c-9 -6 -10 -10 -3 -10 6 0 15 5 18 10 8 12 4 12 -15 0z"/>
<path d="M3167 3135 c-16 -12 -16 -13 -1 -19 9 -4 19 -4 22 -1 3 3 -1 5 -9 5
-12 0 -12 2 1 10 8 5 12 11 10 14 -3 2 -13 -1 -23 -9z"/>
<path d="M3127 3113 c4 -10 2 -14 -5 -9 -6 3 -14 0 -19 -7 -4 -8 -16 -18 -25
-23 -14 -7 -6 -10 28 -10 37 0 42 2 25 10 -22 10 -29 28 -9 24 6 -2 14 5 16
15 2 9 -1 17 -7 17 -6 0 -7 -7 -4 -17z"/>
<path d="M3270 3119 c0 -5 5 -7 10 -4 6 3 10 8 10 11 0 2 -4 4 -10 4 -5 0 -10
-5 -10 -11z"/>
<path d="M3155 3101 c3 -5 0 -11 -7 -13 -7 -3 -5 -7 6 -11 9 -4 15 -3 11 2 -3
5 0 11 7 13 7 3 5 7 -6 11 -9 4 -15 3 -11 -2z"/>
<path d="M3177 3063 c-8 -8 12 -33 26 -33 6 0 2 7 -9 16 -19 15 -18 15 4 11
12 -3 20 -1 16 4 -6 11 -28 12 -37 2z"/>
<path d="M3033 3045 c0 -8 4 -15 9 -15 4 0 8 7 8 15 0 8 -4 15 -8 15 -5 0 -9
-7 -9 -15z"/>
<path d="M3939 2988 c15 -20 2 -25 -17 -6 -9 9 -15 9 -24 -1 -11 -11 -10 -13
4 -8 10 3 20 2 23 -3 4 -6 1 -10 -4 -10 -6 0 -11 -5 -11 -11 0 -5 4 -8 9 -5 5
3 11 -3 14 -14 3 -11 1 -20 -5 -20 -5 0 -6 -5 -2 -12 4 -7 3 -8 -4 -4 -7 4
-12 2 -12 -3 0 -6 -7 -11 -15 -11 -8 0 -15 -8 -15 -17 0 -15 -2 -16 -10 -3 -8
13 -10 12 -11 -5 -1 -11 -1 -23 0 -27 0 -4 -6 -5 -14 -2 -13 5 -17 -3 -15 -31
1 -12 -43 -60 -71 -77 -16 -10 -27 -22 -24 -27 3 -5 0 -13 -6 -17 -8 -4 -9 -3
-5 4 8 13 -20 12 -41 -1 -16 -10 -17 -27 -2 -27 5 0 7 5 3 12 -5 7 -3 8 6 3 9
-6 11 -4 5 5 -5 9 -4 11 4 6 9 -6 9 -11 0 -22 -9 -11 -9 -17 1 -29 7 -8 16
-13 20 -10 14 8 5 -24 -10 -38 -12 -10 -12 -9 -2 4 12 16 7 29 -10 29 -5 0 -7
-4 -4 -9 4 -5 -1 -8 -9 -7 -21 3 -31 16 -12 16 18 0 23 15 8 24 -9 6 -26 -22
-23 -36 2 -8 -14 -12 -31 -9 -5 1 -6 -3 -2 -9 3 -6 11 -8 16 -5 13 9 49 15 49
9 0 -3 -5 -15 -11 -27 -10 -21 -10 -21 5 -3 12 14 16 16 16 5 0 -12 2 -12 9 0
5 8 14 10 21 6 9 -5 11 -4 6 4 -4 7 2 15 16 20 13 6 19 10 14 10 -4 1 6 13 23
28 17 15 31 33 31 40 0 6 5 15 12 19 7 5 9 2 4 -7 -4 -8 -1 -5 8 6 8 11 20 25
26 32 6 8 6 14 0 18 -13 8 22 55 35 47 6 -3 4 2 -4 11 -12 16 -12 17 5 11 10
-4 16 -4 12 1 -10 10 11 37 23 30 4 -3 6 3 4 14 -2 11 4 26 13 33 16 12 16 11
2 -7 -14 -19 -14 -20 6 -2 23 19 39 23 28 5 -5 -7 -3 -8 5 -4 7 5 10 14 8 20
-3 7 1 13 9 13 7 0 10 -5 7 -11 -3 -6 -1 -6 7 1 7 6 19 9 27 6 8 -3 13 0 11 8
-2 8 3 13 10 12 6 -2 12 1 12 7 0 5 6 7 14 4 19 -7 38 27 25 47 -7 12 -9 12
-9 -1 0 -13 -1 -13 -10 0 -5 8 -12 11 -15 8 -12 -12 7 -30 24 -23 12 5 13 4 4
-6 -9 -9 -16 -9 -26 -1 -10 9 -17 8 -27 -1 -10 -10 -11 -9 -5 2 6 10 4 13 -7
8 -9 -3 -20 -1 -25 4 -5 5 -17 7 -27 3 -14 -5 -14 -9 -4 -23 9 -12 7 -11 -9 2
-12 11 -24 14 -27 9 -3 -6 -3 -12 1 -15 5 -2 3 -2 -4 -1 -6 2 -13 -2 -16 -9
-2 -6 -7 -2 -11 8 -4 11 -4 16 0 13 3 -4 13 0 21 8 8 8 19 12 24 9 5 -4 9 -1
9 5 0 7 -7 9 -16 6 -9 -4 -24 -1 -33 6 -14 12 -14 11 -2 -4z m-205 -346 c3 -5
-1 -9 -9 -9 -8 0 -15 4 -15 9 0 4 4 8 9 8 6 0 12 -4 15 -8z"/>
<path d="M4036 2987 c3 -10 9 -15 12 -12 3 3 0 11 -7 18 -10 9 -11 8 -5 -6z"/>
<path d="M3650 2648 c0 -9 -6 -19 -12 -21 -10 -4 -10 -6 0 -6 14 -1 28 26 18
36 -3 4 -6 -1 -6 -9z"/>
<path d="M6615 2600 c-3 -5 -1 -10 4 -10 6 0 11 5 11 10 0 6 -2 10 -4 10 -3 0
-8 -4 -11 -10z"/>
<path d="M3529 2563 c-13 -16 -12 -17 4 -4 16 13 21 21 13 21 -2 0 -10 -8 -17
-17z"/>
<path d="M3616 2556 c6 -15 4 -17 -6 -11 -9 6 -11 4 -5 -4 5 -9 10 -10 18 -2
8 8 7 14 -2 24 -10 10 -11 8 -5 -7z"/>
<path d="M3643 2543 c-18 -37 -11 -39 11 -3 9 17 14 30 9 30 -4 0 -14 -12 -20
-27z"/>
<path d="M6549 2537 c6 -8 7 -18 3 -22 -4 -5 -1 -5 6 -1 10 6 10 11 1 22 -6 8
-14 14 -16 14 -3 0 0 -6 6 -13z"/>
<path d="M6531 2514 c0 -11 3 -14 6 -6 3 7 2 16 -1 19 -3 4 -6 -2 -5 -13z"/>
<path d="M3563 2495 c-3 -9 -3 -18 -1 -21 3 -3 8 4 11 16 6 23 -1 27 -10 5z"/>
<path d="M3381 2479 c-13 -11 -19 -19 -13 -19 5 0 15 6 21 14 11 13 15 12 32
-5 10 -10 25 -19 32 -19 6 1 2 6 -11 13 -12 7 -20 16 -17 19 16 16 -24 13 -44
-3z"/>
<path d="M3476 2482 c-3 -5 1 -9 9 -9 8 0 12 4 9 9 -3 4 -7 8 -9 8 -2 0 -6 -4
-9 -8z"/>
<path d="M3515 2462 c1 -15 -2 -35 -7 -44 -4 -9 -4 -19 0 -22 5 -3 9 0 10 7 1
7 3 27 5 45 3 18 1 34 -3 37 -4 2 -6 -8 -5 -23z"/>
<path d="M6534 2476 c5 -13 2 -17 -9 -12 -8 3 -15 1 -15 -4 0 -12 27 -13 34
-2 2 4 0 14 -6 22 -8 12 -9 11 -4 -4z"/>
<path d="M2457 2455 c-4 -8 -3 -16 1 -19 4 -3 9 4 9 15 2 23 -3 25 -10 4z"/>
<path d="M3336 2461 c-3 -5 2 -15 12 -22 15 -12 16 -12 5 2 -7 9 -10 19 -6 22
3 4 4 7 0 7 -3 0 -8 -4 -11 -9z"/>
<path d="M3592 2450 c-21 -18 -22 -19 -3 -17 11 1 18 3 16 6 -3 2 0 10 6 18
16 18 8 16 -19 -7z"/>
<path d="M6659 2468 c-4 -15 -6 -50 -3 -40 3 6 11 9 17 5 8 -5 8 -2 0 9 -7 8
-10 18 -6 21 3 4 3 7 0 7 -4 0 -7 -1 -8 -2z"/>
<path d="M3380 2450 c-13 -9 -13 -10 0 -10 13 0 13 -2 0 -11 -12 -9 -11 -9 5
-4 11 4 31 7 45 7 l25 -1 -25 14 c-30 17 -31 17 -50 5z"/>
<path d="M3550 2450 c-8 -5 -10 -10 -5 -10 6 0 17 5 25 10 8 5 11 10 5 10 -5
0 -17 -5 -25 -10z"/>
<path d="M3462 2424 c-12 -8 -22 -21 -21 -27 0 -8 3 -7 6 2 5 11 7 11 15 0 7
-11 8 -9 4 5 -5 14 -2 17 9 12 9 -3 14 -2 10 3 -3 5 1 12 7 14 7 3 8 6 3 6 -6
1 -21 -6 -33 -15z"/>
<path d="M6535 2429 c4 -5 13 -9 21 -9 9 0 12 -5 8 -11 -5 -8 -1 -8 13 0 11 6
23 8 25 5 3 -3 8 2 12 11 4 12 2 14 -11 7 -9 -6 -29 -6 -45 -1 -17 5 -26 4
-23 -2z"/>
<path d="M6985 2430 c-4 -6 -11 -7 -17 -4 -7 5 -8 2 -3 -6 6 -10 4 -12 -8 -7
-17 6 -41 -15 -30 -27 4 -4 0 -4 -10 0 -11 4 -19 0 -23 -10 -3 -9 -10 -13 -15
-10 -5 3 -8 0 -7 -8 2 -7 -3 -12 -9 -10 -17 3 -16 -6 1 -24 9 -9 17 -10 21 -4
3 5 1 10 -5 10 -6 0 -9 4 -5 10 3 5 11 7 18 4 7 -2 24 4 36 15 13 12 29 18 35
14 6 -3 8 -2 3 2 -4 5 5 17 20 27 17 10 22 18 13 18 -13 0 -13 1 0 10 9 6 10
10 3 10 -6 0 -15 -5 -18 -10z m-65 -64 c0 -3 -4 -8 -10 -11 -5 -3 -10 -1 -10
4 0 6 5 11 10 11 6 0 10 -2 10 -4z"/>
<path d="M3534 2415 c-3 -8 -4 -20 -1 -27 3 -7 6 -2 6 11 1 24 1 24 21 6 17
-16 20 -16 15 -3 -9 23 -35 31 -41 13z"/>
<path d="M3394 2406 c-19 -14 -19 -14 1 -13 12 1 19 -3 17 -11 -1 -8 2 -11 8
-7 8 5 8 11 0 20 -8 10 -7 14 2 18 7 3 8 6 2 6 -5 1 -19 -5 -30 -13z"/>
<path d="M6730 2406 c0 -2 7 -7 16 -10 8 -3 12 -2 9 4 -6 10 -25 14 -25 6z"/>
<path d="M3480 2379 c-13 -9 -13 -10 0 -6 8 2 20 -3 26 -11 9 -13 12 -13 19
-1 5 8 5 11 0 7 -4 -4 -13 -1 -19 7 -8 11 -15 12 -26 4z"/>
<path d="M6691 2364 c0 -11 3 -14 6 -6 3 7 2 16 -1 19 -3 4 -6 -2 -5 -13z"/>
<path d="M6715 2362 c3 -3 -1 -12 -7 -21 -8 -10 -4 -9 10 3 26 23 26 23 7 23
-8 0 -13 -3 -10 -5z"/>
<path d="M3230 2325 c0 -16 16 -20 24 -6 3 5 -1 11 -9 15 -9 3 -15 0 -15 -9z"/>
<path d="M6813 2318 c4 -11 0 -21 -10 -26 -14 -8 -14 -10 1 -15 9 -4 15 -1 13
6 -1 7 4 11 12 9 12 -3 12 -1 1 15 -22 28 -24 29 -17 11z"/>
<path d="M6841 2313 c7 -12 15 -20 18 -17 3 2 -3 12 -13 22 -17 16 -18 16 -5
-5z"/>
<path d="M3195 2290 c-10 -11 -22 -17 -26 -14 -5 3 -9 0 -9 -6 0 -6 -4 -9 -9
-5 -5 3 -12 -4 -16 -15 -3 -11 -9 -20 -13 -20 -4 0 -7 -13 -7 -30 -1 -16 3
-30 8 -30 5 0 7 7 3 15 -3 10 1 15 12 16 10 0 12 3 5 6 -7 2 -13 9 -13 14 0 5
6 8 13 7 6 -2 11 2 10 9 -2 7 13 15 31 19 24 4 33 10 29 20 -3 9 1 14 12 14 9
0 13 5 10 10 -9 15 -20 12 -40 -10z"/>
<path d="M6711 2288 c6 -11 21 -24 34 -30 12 -5 28 -20 33 -32 6 -11 11 -15
11 -8 1 6 -8 21 -19 32 -11 11 -16 20 -11 20 5 0 11 10 14 23 l6 22 -16 -22
c-8 -13 -20 -23 -26 -23 -7 0 -7 4 1 12 7 7 12 16 12 22 0 5 -7 1 -16 -10 -11
-13 -14 -14 -11 -3 3 9 -1 16 -8 16 -11 0 -11 -5 -4 -19z"/>
<path d="M3113 2076 c4 -9 -2 -12 -19 -10 -13 1 -22 -2 -19 -6 3 -5 -4 -12
-15 -15 -17 -5 -19 -9 -9 -21 10 -12 10 -15 -2 -12 -8 2 -14 -4 -14 -12 0 -8
-4 -18 -10 -22 -6 -5 -4 -8 5 -8 16 0 43 47 34 61 -3 5 2 6 10 3 9 -3 16 -1
16 5 0 6 9 11 19 11 14 0 19 6 18 20 -1 11 -5 20 -10 20 -5 0 -7 -6 -4 -14z"/>
<path d="M6826 2047 c3 -10 9 -15 12 -12 3 3 0 11 -7 18 -10 9 -11 8 -5 -6z"/>
<path d="M6850 2045 c0 -8 4 -15 10 -15 5 0 7 7 4 15 -4 8 -8 15 -10 15 -2 0
-4 -7 -4 -15z"/>
<path d="M3025 1950 c6 -10 4 -12 -9 -7 -10 4 -15 3 -11 -3 3 -5 -5 -21 -19
-35 -14 -14 -23 -25 -19 -25 3 0 -5 -8 -17 -18 -13 -10 -21 -25 -18 -32 3 -10
9 -9 25 7 12 12 24 19 27 16 3 -4 6 3 6 15 0 12 4 22 8 22 4 0 15 13 25 29 13
22 14 32 6 37 -8 5 -9 3 -4 -6z"/>
<path d="M3320 1862 c0 -7 -5 -11 -11 -9 -6 1 -14 -5 -16 -13 -4 -12 -3 -12 5
-1 8 11 10 11 15 0 5 -12 6 -12 6 0 1 11 4 11 19 0 16 -13 16 -13 2 6 -8 11
-16 22 -17 24 -2 2 -3 -1 -3 -7z"/>
<path d="M7070 1860 c0 -5 5 -10 11 -10 5 0 7 5 4 10 -3 6 -8 10 -11 10 -2 0
-4 -4 -4 -10z"/>
<path d="M7235 1840 c-3 -5 -1 -10 4 -10 6 0 11 5 11 10 0 6 -2 10 -4 10 -3 0
-8 -4 -11 -10z"/>
<path d="M7371 1823 c-2 -20 16 -24 30 -5 13 15 12 16 -3 4 -13 -10 -17 -10
-21 0 -4 9 -6 9 -6 1z"/>
<path d="M7410 1806 c0 -3 9 -10 20 -16 11 -6 20 -8 20 -6 0 3 -9 10 -20 16
-11 6 -20 8 -20 6z"/>
<path d="M3267 1713 c3 -8 8 -11 11 -9 3 3 12 0 20 -7 13 -10 14 -9 2 9 -14
23 -41 29 -33 7z"/>
<path d="M3244 1706 c5 -14 2 -17 -9 -12 -9 3 -18 0 -21 -8 -3 -7 -18 -12 -34
-11 -18 1 -31 -4 -35 -14 -5 -12 -8 -12 -14 -3 -6 9 -12 7 -26 -8 -18 -19 -18
-20 3 -20 11 0 23 4 27 10 3 5 12 7 20 3 8 -3 15 0 15 6 0 7 6 11 13 10 27 -3
37 2 37 19 0 15 2 15 11 2 8 -11 12 -12 16 -2 2 6 10 9 16 5 7 -4 5 2 -3 13
-22 29 -24 30 -16 10z"/>
<path d="M7595 1680 c3 -5 8 -10 11 -10 2 0 4 5 4 10 0 6 -5 10 -11 10 -5 0
-7 -4 -4 -10z"/>
<path d="M7450 1640 c0 -5 5 -10 11 -10 5 0 7 5 4 10 -3 6 -8 10 -11 10 -2 0
-4 -4 -4 -10z"/>
<path d="M3067 1627 c-3 -8 1 -14 8 -14 7 0 11 6 8 14 -3 7 -6 13 -8 13 -2 0
-5 -6 -8 -13z"/>
<path d="M7480 1620 c-6 -4 5 -7 25 -8 19 -1 35 0 35 2 0 8 -49 13 -60 6z"/>
<path d="M7673 1609 c15 -9 16 -13 5 -27 -8 -10 -9 -13 -1 -9 7 4 19 -2 29
-15 14 -20 15 -20 10 -3 -6 17 -4 16 19 -5 19 -18 24 -20 19 -7 -5 13 -2 16
10 11 9 -3 14 -10 11 -14 -5 -9 37 -26 73 -29 7 0 10 -6 7 -11 -4 -6 -3 -10 2
-9 4 1 11 0 16 -1 4 -1 10 -3 15 -5 4 -1 15 -5 25 -10 23 -10 35 2 17 18 -10
10 -11 9 -5 -2 5 -9 3 -12 -6 -9 -8 3 -13 11 -11 17 1 7 -2 10 -8 6 -5 -3 -10
0 -10 7 0 10 -2 10 -9 -1 -7 -11 -11 -10 -20 5 -6 11 -11 15 -11 10 0 -5 -11
1 -26 15 -22 21 -24 21 -18 4 6 -18 5 -18 -15 3 -20 20 -33 26 -47 20 -3 -2
-10 5 -15 15 -6 9 -14 15 -20 12 -5 -4 -12 1 -15 9 -3 9 -14 16 -23 16 -14 -1
-14 -2 2 -11z"/>
<path d="M3011 1592 c0 -11 2 -12 6 -4 2 6 9 10 13 7 5 -3 11 -2 14 3 2 4 -4
9 -15 9 -12 1 -19 -4 -18 -15z"/>
<path d="M2967 1576 c4 -5 -1 -7 -11 -3 -15 6 -56 -11 -56 -23 0 -3 12 -7 26
-8 23 -2 25 0 13 14 -12 15 -11 16 7 10 11 -3 28 0 40 8 19 15 18 15 -3 13
-12 0 -19 -5 -16 -11z"/>
<path d="M2875 1539 c-4 -6 -13 -8 -21 -5 -7 3 -18 -3 -23 -12 -5 -9 -12 -16
-15 -14 -14 5 -24 1 -29 -12 -4 -10 -1 -13 9 -9 7 3 14 8 14 12 0 4 6 8 13 9
37 4 69 11 75 16 3 3 0 6 -7 6 -7 0 -9 5 -6 10 3 6 4 10 1 10 -3 0 -8 -5 -11
-11z"/>
<path d="M7036 1488 c3 -4 11 -5 19 -1 21 7 19 12 -4 10 -11 0 -18 -5 -15 -9z"/>
<path d="M2718 1472 c2 -8 8 -9 11 -4 3 5 14 8 24 6 9 -1 17 1 17 6 0 4 -13 7
-29 6 -20 0 -27 -5 -23 -14z"/>
<path d="M7070 1480 c-13 -8 -12 -10 3 -10 9 0 17 5 17 10 0 12 -1 12 -20 0z"/>
<path d="M7224 1458 c-11 -12 -13 -18 -5 -13 10 6 12 2 7 -16 -3 -13 -3 -18 0
-11 3 6 15 12 27 12 18 0 19 -2 7 -10 -9 -6 -10 -10 -3 -10 6 0 15 5 18 10 4
6 11 7 17 4 7 -4 8 -2 4 5 -4 6 -12 9 -17 6 -5 -4 -9 -1 -9 5 0 6 -5 8 -12 4
-6 -4 -8 -3 -5 4 4 5 16 8 27 5 12 -3 20 0 20 6 0 7 -4 9 -10 6 -5 -3 -18 -1
-29 4 -14 8 -23 6 -37 -11z"/>
<path d="M2670 1460 c0 -5 5 -10 10 -10 6 0 10 5 10 10 0 6 -4 10 -10 10 -5 0
-10 -4 -10 -10z"/>
<path d="M7953 1464 c2 -3 14 -6 26 -9 11 -2 25 -6 30 -10 5 -3 13 0 17 6 4 8
3 9 -4 5 -7 -4 -12 -3 -12 1 0 5 -14 9 -31 9 -16 1 -28 0 -26 -2z"/>
<path d="M2610 1440 c0 -7 -7 -10 -14 -7 -10 4 -13 1 -9 -9 4 -10 9 -12 18 -4
6 5 15 7 18 3 4 -3 7 -1 7 5 0 6 -4 14 -10 17 -5 3 -10 1 -10 -5z"/>
<path d="M2645 1440 c3 -5 8 -10 11 -10 2 0 4 5 4 10 0 6 -5 10 -11 10 -5 0
-7 -4 -4 -10z"/>
<path d="M7070 1436 c0 -2 8 -10 18 -17 15 -13 16 -12 3 4 -13 16 -21 21 -21
13z"/>
<path d="M2551 1423 c-1 -17 16 -25 25 -12 4 7 3 9 -4 5 -5 -3 -13 0 -15 6 -4
9 -6 10 -6 1z"/>
<path d="M2495 1400 c-2 -3 0 -12 4 -19 6 -10 10 -9 15 4 3 9 10 13 16 10 5
-3 10 -2 10 4 0 10 -39 11 -45 1z"/>
<path d="M7070 1390 c8 -5 20 -10 25 -10 6 0 3 5 -5 10 -8 5 -19 10 -25 10 -5
0 -3 -5 5 -10z"/>
<path d="M2455 1380 c3 -5 14 -10 23 -10 15 0 15 2 2 10 -20 13 -33 13 -25 0z"/>
<path d="M7170 1379 c0 -5 5 -7 10 -4 6 3 10 8 10 11 0 2 -4 4 -10 4 -5 0 -10
-5 -10 -11z"/>
<path d="M7110 1369 c0 -5 5 -7 10 -4 6 3 10 8 10 11 0 2 -4 4 -10 4 -5 0 -10
-5 -10 -11z"/>
<path d="M2426 1358 c3 -5 10 -6 15 -3 13 9 11 12 -6 12 -8 0 -12 -4 -9 -9z"/>
<path d="M7090 1367 c0 -5 5 -17 10 -28 7 -11 7 -19 1 -19 -5 0 -11 5 -13 12
-2 6 -10 8 -16 4 -16 -9 -15 -23 1 -23 6 0 23 -3 37 -6 14 -4 20 -4 13 -1 -10
4 -10 8 0 19 7 7 16 10 21 7 5 -3 6 0 1 7 -5 9 -10 10 -18 2 -8 -8 -15 -5 -24
11 -7 13 -12 19 -13 15z"/>
<path d="M7170 1291 c0 -7 -4 -9 -10 -6 -6 4 -7 -1 -3 -11 6 -15 7 -15 15 1 6
9 7 19 4 22 -3 4 -6 1 -6 -6z"/>
<path d="M7210 1296 c0 -2 8 -10 18 -17 15 -13 16 -12 3 4 -13 16 -21 21 -21
13z"/>
<path d="M3125 1280 c-3 -5 -1 -10 4 -10 6 0 11 5 11 10 0 6 -2 10 -4 10 -3 0
-8 -4 -11 -10z"/>
<path d="M7050 1281 c0 -6 5 -13 10 -16 6 -3 10 1 10 9 0 9 -4 16 -10 16 -5 0
-10 -4 -10 -9z"/>
<path d="M3210 1238 c0 -6 3 -8 7 -5 3 4 13 1 22 -6 14 -11 14 -10 2 6 -15 20
-31 22 -31 5z"/>
<path d="M7144 1243 c3 -3 19 -7 36 -8 17 -1 28 0 25 3 -3 3 -19 7 -36 8 -17
2 -28 0 -25 -3z"/>
<path d="M7131 1212 c-7 -14 -6 -19 4 -19 7 0 11 7 7 15 -4 11 -1 13 8 7 9 -5
11 -4 6 3 -10 16 -14 15 -25 -6z"/>
<path d="M3027 1204 c3 -7 9 -14 14 -14 14 0 10 17 -5 23 -10 4 -13 1 -9 -9z"/>
<path d="M3197 1213 c-11 -11 -8 -20 7 -20 8 0 12 6 9 14 -6 15 -7 15 -16 6z"/>
<path d="M3146 1202 c-3 -5 1 -9 9 -9 8 0 12 4 9 9 -3 4 -7 8 -9 8 -2 0 -6 -4
-9 -8z"/>
<path d="M3255 1198 c30 -16 30 -17 9 -34 -18 -14 -18 -15 4 -4 27 13 28 26 3
40 -27 14 -41 12 -16 -2z"/>
<path d="M3233 1183 c4 -3 1 -13 -6 -22 -11 -14 -10 -14 6 -2 20 15 22 31 5
31 -6 0 -8 -3 -5 -7z"/>
<path d="M7093 1175 c-3 -9 -3 -18 -1 -21 3 -3 8 4 11 16 6 23 -1 27 -10 5z"/>
<path d="M6956 1162 c-3 -5 1 -9 9 -9 8 0 12 4 9 9 -3 4 -7 8 -9 8 -2 0 -6 -4
-9 -8z"/>
<path d="M6706 1131 c-4 -5 -2 -12 3 -15 5 -4 12 -2 15 3 4 5 2 12 -3 15 -5 4
-12 2 -15 -3z"/>
<path d="M6680 1124 c0 -13 18 -39 24 -34 2 3 -2 14 -10 24 -8 11 -14 16 -14
10z"/>
<path d="M6316 1113 c-11 -11 -6 -23 8 -23 8 0 17 4 20 9 7 10 -19 23 -28 14z"/>
<path d="M6567 1103 c3 -8 11 -12 19 -9 7 3 15 -3 17 -12 4 -16 5 -16 6 0 1
17 -14 31 -36 34 -6 1 -9 -5 -6 -13z"/>
<path d="M6760 1100 c-9 -6 -10 -10 -3 -10 6 0 15 5 18 10 8 12 4 12 -15 0z"/>
<path d="M6353 1075 c0 -8 4 -12 9 -9 5 3 6 10 3 15 -9 13 -12 11 -12 -6z"/>
<path d="M6478 1083 c7 -3 16 -2 19 1 4 3 -2 6 -13 5 -11 0 -14 -3 -6 -6z"/>
<path d="M6165 1070 c-4 -6 -9 -8 -13 -6 -4 2 -15 -2 -25 -9 -13 -9 -15 -15
-7 -20 7 -4 17 -2 23 4 16 16 32 14 18 -3 -8 -10 -9 -16 -1 -21 6 -4 10 -3 9
2 -1 4 0 10 1 13 3 9 7 50 4 50 -2 0 -6 -5 -9 -10z"/>
<path d="M6233 1063 c4 -6 1 -14 -5 -16 -10 -4 -10 -6 0 -6 7 -1 10 -6 6 -13
-4 -6 -3 -8 4 -5 12 8 10 32 -3 44 -4 4 -5 3 -2 -4z"/>
<path d="M3694 1039 c-4 -7 -3 -9 4 -5 5 3 13 0 15 -6 4 -9 6 -10 6 -1 1 17
-16 25 -25 12z"/>
<path d="M3870 976 c0 -2 8 -10 18 -17 15 -13 16 -12 3 4 -13 16 -21 21 -21
13z"/>
<path d="M4349 978 c-7 -22 -3 -45 7 -41 6 2 10 13 7 24 -5 16 -11 25 -14 17z"/>
<path d="M3950 961 c0 -6 4 -13 10 -16 6 -3 7 1 4 9 -7 18 -14 21 -14 7z"/>
<path d="M4430 966 c0 -2 7 -9 15 -16 13 -11 14 -10 9 4 -5 14 -24 23 -24 12z"/>
<path d="M4473 957 c-3 -5 0 -14 6 -20 9 -9 11 -8 5 6 -5 13 -2 16 10 11 9 -3
16 -2 16 3 0 12 -29 13 -37 0z"/>
<path d="M5790 959 c0 -5 5 -7 10 -4 6 3 10 8 10 11 0 2 -4 4 -10 4 -5 0 -10
-5 -10 -11z"/>
<path d="M5876 961 c-3 -5 1 -11 9 -14 9 -4 12 -1 8 9 -6 16 -10 17 -17 5z"/>
<path d="M5950 960 c0 -5 5 -10 10 -10 6 0 10 5 10 10 0 6 -4 10 -10 10 -5 0
-10 -4 -10 -10z"/>
<path d="M4135 950 c-3 -5 -1 -10 4 -10 6 0 11 5 11 10 0 6 -2 10 -4 10 -3 0
-8 -4 -11 -10z"/>
<path d="M4627 947 c-3 -8 1 -14 9 -14 16 0 19 13 5 21 -5 3 -11 0 -14 -7z"/>
<path d="M4450 919 c0 -5 5 -7 10 -4 6 3 10 8 10 11 0 2 -4 4 -10 4 -5 0 -10
-5 -10 -11z"/>
<path d="M4550 916 c7 -7 13 -7 20 0 6 6 3 10 -10 10 -13 0 -16 -4 -10 -10z"/>
</g>
</svg>
